<?xml version="1.0" encoding="UTF-8"?>
<svg width="119px" height="32px" viewBox="0 0 119 32" version="1.1" xmlns="http://www.w3.org/2000/svg" xmlns:xlink="http://www.w3.org/1999/xlink">
    <!-- Generator: Sketch 49 (51002) - http://www.bohemiancoding.com/sketch -->
    <title>logo</title>
    <desc>Created with Sketch.</desc>
    <defs></defs>
    <g id="Page-1" stroke="none" stroke-width="1" fill="none" fill-rule="evenodd">
        <g id="logo" fill-rule="nonzero">
            <path d="M29.1984516,19.9463226 C29.0133061,20.1326297 28.7614967,20.2373941 28.4988387,20.2373941 C28.2361807,20.2373941 27.9843714,20.1326297 27.7992258,19.9463226 L24.9651613,17.104 C24.6111772,16.7120583 24.625688,16.1116733 24.9981935,15.7372903 L27.7971613,12.9295484 C28.169499,12.5549993 28.7707222,12.5399858 29.1612903,12.8954839 L29.195871,12.9305806 L31.9948387,15.7383226 C32.3814644,16.1264221 32.3814644,16.754094 31.9948387,17.1421935 L29.1984516,19.9463226 Z M7.64696774,15.7341935 C7.26090751,16.1225265 7.26090751,16.7497316 7.64696774,17.1380645 L15.0642581,24.5780645 C15.4365464,24.9514839 16.0366245,24.9662586 16.4268387,24.6116129 L21.6397419,19.3827097 C21.8250233,19.1966575 22.0767818,19.0920695 22.3393548,19.0920695 C22.6019278,19.0920695 22.8536863,19.1966575 23.0389677,19.3827097 L25.5581935,21.9117419 C25.9442538,22.3000749 25.9442538,22.9272799 25.5581935,23.3156129 L17.7212903,31.1772903 C17.2024372,31.69835 16.4973956,31.9912645 15.7620645,31.9912645 C15.0267334,31.9912645 14.3216919,31.69835 13.8028387,31.1772903 L1.06993548,18.4025806 C-0.0113719644,17.3153882 -0.0113719644,15.5589344 1.06993548,14.4717419 L15.204129,0.29316129 C15.5764452,-0.0803699855 16.1767309,-0.0949223649 16.5667097,0.260129032 L16.6012903,0.295225806 L19.0849032,2.78709677 L19.12,2.82219355 C19.5066257,3.21029309 19.5066257,3.83796497 19.12,4.22606452 L7.6443871,15.7357419 L7.64696774,15.7341935 Z" id="椭圆_1_拷贝_17" fill="#1BA67E"></path>
            <path d="M118.451613,25.8141935 C118.45175,25.8880645 118.422501,25.9589567 118.370315,26.0112398 C118.318129,26.0635229 118.24729,26.0929033 118.173419,26.0929032 L115.946839,26.0929032 C115.872968,26.0929033 115.80213,26.0635229 115.749943,26.0112398 C115.697757,25.9589567 115.668508,25.8880645 115.668645,25.8141935 L115.668645,16.6787097 C115.636129,16.603871 115.601548,16.3896774 115.565419,16.3174194 C115.249172,15.2559782 114.273486,14.5281492 113.165935,14.5274839 L112.609548,14.5274839 C111.723349,14.5280312 110.873663,14.8805977 110.247413,15.5076226 C109.621162,16.1346475 109.269646,16.9847682 109.270194,17.8709677 L109.270194,25.8141935 C109.270194,25.9679193 109.145725,26.0926185 108.992,26.0929032 L106.765419,26.0929032 C106.691548,26.0929033 106.62071,26.0635229 106.568524,26.0112398 C106.516338,25.9589567 106.487089,25.8880645 106.487226,25.8141935 L106.487226,12.5790968 C106.487089,12.5052259 106.516338,12.4343336 106.568524,12.3820505 C106.62071,12.3297674 106.691548,12.300387 106.765419,12.3003871 L108.992,12.3003871 C109.145725,12.3006718 109.270194,12.425371 109.270194,12.5790968 L109.270194,14.4247742 C110.128598,13.0183351 111.657587,12.1605524 113.30529,12.1610323 L113.722839,12.1610323 C116.336311,12.1638813 118.453039,14.2840748 118.451613,16.8975484 C118.451613,16.932129 118.448516,16.9656774 118.448,17.0007742 C118.44997,17.0130749 118.451176,17.0254857 118.451613,17.0379355 L118.451613,25.8141935 Z M96.7447742,26.0929032 C93.9256501,26.0970797 91.381792,24.4020945 90.300065,21.7987611 C89.2183375,19.1954277 89.8119174,16.1967862 91.8038632,14.201885 C93.795809,12.2069838 96.793567,11.608959 99.3985012,12.6868254 C102.003435,13.7646919 103.70219,16.3060341 103.702194,19.1251613 C103.7037,20.9717945 102.971501,22.7433777 101.666702,24.0501126 C100.361903,25.3568475 98.5914075,26.0916717 96.7447742,26.0929032 Z M96.7447742,14.9476129 C95.0532996,14.945107 93.5269848,15.9620982 92.8779484,17.5240982 C92.228912,19.0860982 92.5850601,20.8852831 93.7802276,22.0822238 C94.9753951,23.2791645 96.7740501,23.6379794 98.3370106,22.9912596 C99.8999711,22.3445397 100.919224,20.8197344 100.919226,19.1282581 C100.920322,18.0202195 100.481064,16.9571582 99.698143,16.1730757 C98.9152222,15.3889931 97.8528129,14.9481601 96.7447742,14.9476129 Z M85.9989677,9.77083871 C85.8969858,9.8732097 85.7584351,9.93075396 85.6139355,9.93075396 C85.4694359,9.93075396 85.3308852,9.8732097 85.2289032,9.77083871 L83.6686452,8.20903226 C83.4735969,7.99369192 83.4815396,7.66326808 83.6867097,7.45754839 L85.227871,5.91483871 C85.4329543,5.709608 85.7630792,5.70165595 85.9778065,5.89677419 L85.9969032,5.91587097 L87.5380645,7.45858065 C87.6409394,7.56113326 87.6987613,7.70041806 87.6987613,7.84567742 C87.6987613,7.99093677 87.6409394,8.13022157 87.5380645,8.23277419 L85.9989677,9.77083871 Z M77.4967742,18.0412903 C79.7259355,18.5832258 81.4389677,19.3734194 81.4389677,21.9122581 C81.4389677,24.9656774 78.6988387,26.2312258 76.0123871,26.2312258 C73.9101935,26.2312258 72.2642581,25.7228387 70.9569032,24.1347097 C70.9419355,24.116129 70.9254194,24.0990968 70.912,24.0789677 C70.8296186,23.9410697 70.8454575,23.7657984 70.9512258,23.6449032 C70.9672258,23.6299355 70.9858065,23.6165161 71.0028387,23.6015484 L72.3834839,22.4660645 C72.4046452,22.4485161 72.4263226,22.4325161 72.4449032,22.4144516 C72.5034973,22.3509747 72.5879277,22.3178172 72.6740583,22.3244581 C72.7601889,22.331099 72.8385388,22.3768073 72.8867097,22.4485161 C72.9002699,22.4640462 72.9153084,22.4782204 72.9316129,22.4908387 C73.7369161,23.3364427 74.8440805,23.8290725 76.0113548,23.8611613 C77.3259355,23.8611613 78.6549677,23.220129 78.6549677,22.0500645 C78.6549677,20.5089032 76.5522581,20.2952258 75.4374194,20.0371613 C73.2366452,19.4952258 71.28,18.7984516 71.28,16.1997419 C71.28,13.3744516 73.8941935,12.0190968 76.4381935,12.0190968 C78.1357419,12.0190968 79.883871,12.5770323 80.8929032,13.9803871 C80.9197419,14.0175484 80.9445161,14.0578065 80.971871,14.0939355 C81.044129,14.1863226 81.0307097,14.2756129 80.8779355,14.3896774 L80.8299355,14.4258065 L79.3197419,15.5674839 C79.3058065,15.5778065 79.2923871,15.5891613 79.2789677,15.5984516 C79.1575886,15.6758156 78.9989068,15.6593486 78.896,15.5587097 C78.8866797,15.5456904 78.8757548,15.5338985 78.8634839,15.5236129 C78.2072397,14.7946198 77.2703855,14.3813292 76.2895484,14.388129 C75.0890323,14.388129 74.0629677,14.9501935 74.0629677,15.9205161 C74.0645161,17.5489032 76.3535484,17.7842581 77.4967742,18.0412903 Z M67.8028387,25.9535484 L65.5762581,25.9535484 C65.5023871,25.9535485 65.4315489,25.9241681 65.3793626,25.871885 C65.3271768,25.8196019 65.2979272,25.7487096 65.2980645,25.6748387 L65.2980645,23.8291613 C64.4394431,25.2353749 62.9105925,26.0930801 61.2629677,26.0929032 L60.8454194,26.0929032 C59.5898596,26.092219 58.3860108,25.5927229 57.4987768,24.7043273 C56.6115427,23.8159316 56.1136222,22.6114307 56.1145806,21.355871 L56.1145806,12.4397419 C56.1144434,12.365871 56.1436929,12.2949787 56.1958787,12.2426956 C56.248065,12.1904125 56.3189032,12.1610322 56.3927742,12.1610323 L58.6188387,12.1610323 C58.6927097,12.1610322 58.7635479,12.1904125 58.8157342,12.2426956 C58.86792,12.2949787 58.8971695,12.365871 58.8970323,12.4397419 L58.8970323,21.5726452 C58.9300645,21.648 58.9646452,21.8616774 59.0002581,21.9339355 C59.3161166,22.9955008 60.2916671,23.7235956 61.3992258,23.7243871 L61.956129,23.7243871 C63.8014261,23.7229624 65.2963396,22.2262005 65.2954839,20.3809032 L65.2954839,12.4397419 C65.2953466,12.365871 65.3245961,12.2949787 65.3767819,12.2426956 C65.4289683,12.1904125 65.4998065,12.1610322 65.5736774,12.1610323 L67.8002581,12.1610323 C67.9539835,12.161317 68.0784521,12.2860162 68.0784516,12.4397419 L68.0784516,25.6748387 C68.0784609,25.8275645 67.9555551,25.9518515 67.8028387,25.9535484 Z M47.3486452,26.0536774 C47.3065592,26.0790303 47.2584217,26.0925801 47.2092903,26.0929032 L47.1421935,26.0929032 L45.0162581,26.0892903 C45.0051746,26.0912853 44.9939638,26.0924926 44.9827097,26.0929032 C44.9531518,26.0925429 44.9238557,26.0873115 44.896,26.0774194 L36.8903226,6.25806452 C36.8347728,6.14199613 36.795354,6.01887737 36.7731613,5.89212903 C36.8232433,5.7876529 36.9376913,5.73032274 37.0513548,5.75277419 L37.0596129,5.75277419 L39.5556129,5.75277419 C39.6061923,5.75289801 39.6557234,5.76720305 39.6985806,5.79406452 L46.1150968,21.6815484 L52.5419355,5.76980645 C52.5715902,5.75839783 52.6030658,5.75245249 52.6348387,5.75225806 L55.1437419,5.75225806 C55.246912,5.75359484 55.3408341,5.81202643 55.3876258,5.90398514 C55.4344175,5.9959439 55.4263628,6.10626488 55.3667097,6.19045161 L47.3486452,26.0536774 Z M84.500129,12.1610323 L86.7261935,12.1610323 C86.8801208,12.1610323 87.0049032,12.2858148 87.0049032,12.4397419 L87.0049032,25.8141935 C87.0049032,25.9681207 86.8801208,26.0929032 86.7261935,26.0929032 L84.500129,26.0929032 C84.4262581,26.0929033 84.3554199,26.0635229 84.3032335,26.0112398 C84.2510477,25.9589567 84.2217982,25.8880645 84.2219355,25.8141935 L84.2219355,12.4397419 C84.2217982,12.365871 84.2510477,12.2949787 84.3032335,12.2426956 C84.3554199,12.1904125 84.4262581,12.1610322 84.500129,12.1610323 Z" id="矩形_10_拷贝_3" fill="#2C3E50"></path>
        </g>
    </g>
</svg>