<?xml version="1.0" standalone="no"?>
<!DOCTYPE svg PUBLIC "-//W3C//DTD SVG 1.1//EN" "http://www.w3.org/Graphics/SVG/1.1/DTD/svg11.dtd" >
<svg xmlns="http://www.w3.org/2000/svg">
<defs>
  <font id="vusion-icon-font" horiz-adv-x="4000.0000000000005">
    <font-face font-family="vusion-icon-font"
      units-per-em="1000" ascent="1000"
      descent="0" />
    <missing-glyph horiz-adv-x="0" />
    <glyph glyph-name="arrow-down"
      unicode="&#xF101;"
      horiz-adv-x="1000" d="M500 333.3333333333334L200 666.6666666666667L799.9999999999999 666.6666666666667z" />
    <glyph glyph-name="arrow-down-1"
      unicode="&#x61;&#x72;&#x72;&#x6F;&#x77;&#x2D;&#x64;&#x6F;&#x77;&#x6E;"
      horiz-adv-x="1000" d="M500 333.3333333333335L200 666.6666666666667L799.9999999999999 666.6666666666667z" />
    <glyph glyph-name="arrow-left"
      unicode="&#xF102;"
      horiz-adv-x="1000" d="M333.3333333333333 500L666.6666666666666 800L666.6666666666666 200.0000000000001z" />
    <glyph glyph-name="arrow-left-1"
      unicode="&#x61;&#x72;&#x72;&#x6F;&#x77;&#x2D;&#x6C;&#x65;&#x66;&#x74;"
      horiz-adv-x="1000" d="M333.3333333333333 500L666.6666666666666 800L666.6666666666666 200.0000000000001z" />
    <glyph glyph-name="arrow-right"
      unicode="&#xF103;"
      horiz-adv-x="1000" d="M666.6666666666666 500L333.3333333333333 800L333.3333333333333 200.0000000000001z" />
    <glyph glyph-name="arrow-right-1"
      unicode="&#x61;&#x72;&#x72;&#x6F;&#x77;&#x2D;&#x72;&#x69;&#x67;&#x68;&#x74;"
      horiz-adv-x="1000" d="M666.6666666666666 500L333.3333333333333 800L333.3333333333333 200.0000000000001z" />
    <glyph glyph-name="arrow-up"
      unicode="&#xF104;"
      horiz-adv-x="1000" d="M500 666.6666666666667L200 333.3333333333334L799.9999999999999 333.3333333333334z" />
    <glyph glyph-name="arrow-up-1"
      unicode="&#x61;&#x72;&#x72;&#x6F;&#x77;&#x2D;&#x75;&#x70;"
      horiz-adv-x="1000" d="M500 666.6666666666667L200 333.3333333333335L799.9999999999999 333.3333333333335z" />
    <glyph glyph-name="spinner"
      unicode="&#xF105;"
      horiz-adv-x="1000" d="M593.75 906.25C593.75 854.47265625 551.77734375 812.5 500 812.5S406.25 854.47265625 406.25 906.25S448.22265625 1000 500 1000S593.75 958.02734375 593.75 906.25zM500 187.5C448.22265625 187.5 406.25 145.52734375 406.25 93.75S448.22265625 0 500 0S593.75 41.97265625 593.75 93.75S551.77734375 187.5 500 187.5zM906.25 593.75C854.47265625 593.75 812.5 551.77734375 812.5 500S854.47265625 406.25 906.25 406.25S1000 448.22265625 1000 500S958.02734375 593.75 906.25 593.75zM187.5 500C187.5 551.77734375 145.52734375 593.75 93.75 593.75S0 551.77734375 0 500S41.97265625 406.25 93.75 406.25S187.5 448.22265625 187.5 500zM212.73828125 306.48828125C160.9609375 306.48828125 118.98828125 264.515625 118.98828125 212.73828125S160.9609375 118.98828125 212.73828125 118.98828125S306.48828125 160.9609375000001 306.48828125 212.73828125C306.48828125 264.5136718750001 264.513671875 306.48828125 212.73828125 306.48828125zM787.26171875 306.48828125C735.484375 306.48828125 693.51171875 264.515625 693.51171875 212.73828125S735.484375 118.98828125 787.26171875 118.98828125S881.01171875 160.9609375000001 881.01171875 212.73828125C881.01171875 264.5136718750001 839.0390624999999 306.48828125 787.26171875 306.48828125zM212.73828125 881.01171875C160.9609375 881.01171875 118.98828125 839.0390625 118.98828125 787.26171875S160.9609375 693.51171875 212.73828125 693.51171875S306.48828125 735.484375 306.48828125 787.26171875S264.513671875 881.01171875 212.73828125 881.01171875z" />
    <glyph glyph-name="spinner-1"
      unicode="&#x73;&#x70;&#x69;&#x6E;&#x6E;&#x65;&#x72;"
      horiz-adv-x="1000" d="M593.75 906.25C593.75 854.47265625 551.77734375 812.5 500 812.5S406.25 854.47265625 406.25 906.25S448.22265625 1000 500 1000S593.75 958.02734375 593.75 906.25zM500 187.5C448.22265625 187.5 406.25 145.52734375 406.25 93.75S448.22265625 0 500 0S593.75 41.97265625 593.75 93.75S551.77734375 187.5 500 187.5zM906.25 593.75C854.47265625 593.75 812.5 551.77734375 812.5 500S854.47265625 406.25 906.25 406.25S1000 448.22265625 1000 500S958.02734375 593.75 906.25 593.75zM187.5 500C187.5 551.77734375 145.52734375 593.75 93.75 593.75S0 551.77734375 0 500S41.97265625 406.25 93.75 406.25S187.5 448.22265625 187.5 500zM212.73828125 306.48828125C160.9609375 306.48828125 118.98828125 264.515625 118.98828125 212.73828125S160.9609375 118.98828125 212.73828125 118.98828125S306.48828125 160.9609375000001 306.48828125 212.73828125C306.48828125 264.5136718750001 264.513671875 306.48828125 212.73828125 306.48828125zM787.26171875 306.48828125C735.484375 306.48828125 693.51171875 264.515625 693.51171875 212.73828125S735.484375 118.98828125 787.26171875 118.98828125S881.01171875 160.9609375000001 881.01171875 212.73828125C881.01171875 264.5136718750001 839.0390624999999 306.48828125 787.26171875 306.48828125zM212.73828125 881.01171875C160.9609375 881.01171875 118.98828125 839.0390625 118.98828125 787.26171875S160.9609375 693.51171875 212.73828125 693.51171875S306.48828125 735.484375 306.48828125 787.26171875S264.513671875 881.01171875 212.73828125 881.01171875z" />
    <glyph glyph-name="close-small"
      unicode="&#xF106;"
      horiz-adv-x="1000" d="M727.1875 333.71875L563.21875 497.6874999999999L731.84375 666.3125C736.53125 671 736.53125 680.375 727.1562500000001 685.0625L689.6875 727.21875C685 731.90625 675.625 731.90625 666.25 727.21875L502.28125 558.59375L333.65625 727.21875C328.96875 731.90625 319.59375 731.90625 314.90625 727.21875L272.75 685.0625C268.0625 680.375 268.0625 671 272.75 666.3125L441.375 497.6875000000001L272.75 333.7187500000001C268.0625 324.34375 268.0625 314.96875 272.75 310.2812500000001L314.90625 272.8125C319.59375 268.1250000000001 328.96875 268.1250000000001 338.34375 272.8125L502.28125 436.78125L670.90625 268.15625C675.59375 263.46875 684.96875 263.46875 689.6562500000001 272.8437499999999L727.1250000000001 310.3125C736.5000000000001 315 736.5000000000001 324.375 727.1250000000001 333.75V333.75z" />
    <glyph glyph-name="close-small-1"
      unicode="&#x63;&#x6C;&#x6F;&#x73;&#x65;&#x2D;&#x73;&#x6D;&#x61;&#x6C;&#x6C;"
      horiz-adv-x="1000" d="M727.1875 333.71875L563.21875 497.6874999999999L731.84375 666.3125C736.53125 671 736.53125 680.375 727.1562500000001 685.0625L689.6875 727.21875C685 731.90625 675.625 731.90625 666.25 727.21875L502.28125 558.59375L333.65625 727.21875C328.96875 731.90625 319.59375 731.90625 314.90625 727.21875L272.75 685.0625C268.0625 680.375 268.0625 671 272.75 666.3125L441.375 497.6875000000001L272.75 333.7187500000001C268.0625 324.34375 268.0625 314.96875 272.75 310.2812500000001L314.90625 272.8125C319.59375 268.1250000000001 328.96875 268.1250000000001 338.34375 272.8125L502.28125 436.78125L670.90625 268.15625C675.59375 263.46875 684.96875 263.46875 689.6562500000001 272.8437499999999L727.1250000000001 310.3125C736.5000000000001 315 736.5000000000001 324.375 727.1250000000001 333.75V333.75z" />
    <glyph glyph-name="create"
      unicode="&#xF107;"
      horiz-adv-x="1000" d="M0 562.5H1000V437.5H0V562.5zM437.5 1000H562.5V0H437.5V1000z" />
    <glyph glyph-name="create-1"
      unicode="&#x63;&#x72;&#x65;&#x61;&#x74;&#x65;"
      horiz-adv-x="1000" d="M0 562.5H1000V437.5H0V562.5zM437.5 1000H562.5V0H437.5V1000z" />
    <glyph glyph-name="help"
      unicode="&#xF108;"
      horiz-adv-x="1000" d="M500 0C223.84375 0 0 223.84375 0 500S223.84375 1000 500 1000C776.15625 1000 1000 776.15625 1000 500S776.15625 0 500 0zM444.78125 141.84375H549.71875V255.3437500000001H444.78125V141.84375zM499.0625 786.34375C386.1250000000001 786.34375 306.125 729.125 284.78125 606.6875L377.21875 591.46875C388.78125 671.03125 438.5625 702.3125 499.0624999999999 702.3125C567.5 702.3125 615.4999999999999 668.3125000000001 615.4999999999999 611.09375C615.4999999999999 561.9375 589.71875 538.75 529.2812499999999 492.2500000000001C490.1249999999999 461.8125000000001 448.34375 435.0312500000001 448.34375 360.8125000000001V325.9687500000001H546.125V360.8125000000001C546.125 416.2500000000001 586.1875 433.2500000000001 627.0625 465.3750000000001C687.5625 512.8125000000001 713.28125 547.65625 713.28125 611.0937500000001C713.28125 721.0937500000001 642.21875 786.3125000000001 499.0624999999999 786.3125000000001z" />
    <glyph glyph-name="help-1"
      unicode="&#x68;&#x65;&#x6C;&#x70;"
      horiz-adv-x="1000" d="M500 0C223.84375 0 0 223.84375 0 500S223.84375 1000 500 1000C776.15625 1000 1000 776.15625 1000 500S776.15625 0 500 0zM444.78125 141.84375H549.71875V255.3437500000001H444.78125V141.84375zM499.0625 786.34375C386.1250000000001 786.34375 306.125 729.125 284.78125 606.6875L377.21875 591.46875C388.78125 671.03125 438.5625 702.3125 499.0624999999999 702.3125C567.5 702.3125 615.4999999999999 668.3125000000001 615.4999999999999 611.09375C615.4999999999999 561.9375 589.71875 538.75 529.2812499999999 492.2500000000001C490.1249999999999 461.8125000000001 448.34375 435.0312500000001 448.34375 360.8125000000001V325.9687500000001H546.125V360.8125000000001C546.125 416.2500000000001 586.1875 433.2500000000001 627.0625 465.3750000000001C687.5625 512.8125000000001 713.28125 547.65625 713.28125 611.0937500000001C713.28125 721.0937500000001 642.21875 786.3125000000001 499.0624999999999 786.3125000000001z" />
    <glyph glyph-name="keyboard-arrow-right"
      unicode="&#xF109;"
      horiz-adv-x="1000" d="M357.9166666666667 319.1666666666668L548.75 510.4166666666667L357.9166666666667 701.6666666666667L416.6666666666667 760.4166666666667L666.6666666666666 510.4166666666667L416.6666666666667 260.4166666666668z" />
    <glyph glyph-name="keyboard-arrow-right-1"
      unicode="&#x6B;&#x65;&#x79;&#x62;&#x6F;&#x61;&#x72;&#x64;&#x2D;&#x61;&#x72;&#x72;&#x6F;&#x77;&#x2D;&#x72;&#x69;&#x67;&#x68;&#x74;"
      horiz-adv-x="1000" d="M357.9166666666667 319.1666666666668L548.75 510.4166666666667L357.9166666666667 701.6666666666667L416.6666666666667 760.4166666666667L666.6666666666666 510.4166666666667L416.6666666666667 260.4166666666668z" />
    <glyph glyph-name="rotate-left"
      unicode="&#xF10A;"
      horiz-adv-x="1000" d="M296.25 644.5833333333334L237.5 703.75C200 655.4166666666667 176.6666666666667 599.5833333333334 169.5833333333334 541.6666666666667H253.75C259.5833333333333 577.9166666666667 274.1666666666667 613.3333333333334 296.25 644.5833333333334zM253.75 458.3333333333334H169.5833333333334C176.6666666666667 400.4166666666667 199.5833333333333 344.5833333333334 237.0833333333334 296.25L295.8333333333333 355.4166666666667C274.1666666666667 386.6666666666667 259.5833333333333 421.6666666666667 253.7500000000001 458.3333333333334zM295.8333333333333 236.6666666666668C344.1666666666667 199.1666666666668 400.4166666666667 176.6666666666666 458.3333333333333 169.5833333333334V254.1666666666668C422.0833333333333 260.4166666666668 387.0833333333333 274.5833333333334 355.8333333333333 297.0833333333335L295.8333333333333 236.6666666666668zM541.6666666666666 830.4166666666666V958.3333333333334L352.0833333333333 768.75L541.6666666666666 583.3333333333334V746.25C660 726.25 750 623.75 750 500S660 273.75 541.6666666666666 253.75V169.5833333333334C706.2499999999999 190 833.3333333333333 330.0000000000001 833.3333333333333 500S706.2499999999999 810 541.6666666666666 830.4166666666666z" />
    <glyph glyph-name="rotate-left-1"
      unicode="&#x72;&#x6F;&#x74;&#x61;&#x74;&#x65;&#x2D;&#x6C;&#x65;&#x66;&#x74;"
      horiz-adv-x="1000" d="M296.25 644.5833333333334L237.5 703.75C200 655.4166666666667 176.6666666666667 599.5833333333334 169.5833333333334 541.6666666666667H253.75C259.5833333333333 577.9166666666667 274.1666666666667 613.3333333333334 296.25 644.5833333333334zM253.75 458.3333333333334H169.5833333333334C176.6666666666667 400.4166666666667 199.5833333333333 344.5833333333335 237.0833333333334 296.25L295.8333333333333 355.4166666666667C274.1666666666667 386.6666666666667 259.5833333333333 421.6666666666667 253.7500000000001 458.3333333333334zM295.8333333333333 236.6666666666668C344.1666666666667 199.1666666666668 400.4166666666667 176.6666666666666 458.3333333333333 169.5833333333334V254.1666666666668C422.0833333333333 260.4166666666668 387.0833333333333 274.5833333333335 355.8333333333333 297.0833333333335L295.8333333333333 236.6666666666668zM541.6666666666666 830.4166666666666V958.3333333333334L352.0833333333333 768.75L541.6666666666666 583.3333333333334V746.25C660 726.25 750 623.75 750 500S660 273.75 541.6666666666666 253.75V169.5833333333334C706.2499999999999 190 833.3333333333333 330.0000000000001 833.3333333333333 500S706.2499999999999 810 541.6666666666666 830.4166666666666z" />
    <glyph glyph-name="rotate-right"
      unicode="&#xF10B;"
      horiz-adv-x="1000" d="M647.9166666666666 768.75L458.3333333333333 958.3333333333334V830.4166666666666C294.1666666666667 810 166.6666666666667 670 166.6666666666667 500S293.75 190 458.3333333333333 169.5833333333334V253.75C340 273.75 250 376.25 250 500S340 726.25 458.3333333333333 746.25V583.3333333333334L647.9166666666666 768.75zM830.4166666666666 541.6666666666667C823.3333333333333 599.5833333333334 800.4166666666666 655.4166666666667 762.9166666666665 703.75L703.75 644.5833333333334C726.25 613.3333333333334 740.4166666666666 577.9166666666667 746.25 541.6666666666667H830.4166666666666zM541.6666666666666 254.1666666666668V170.0000000000001C599.5833333333334 177.0833333333335 655.8333333333333 199.5833333333335 704.1666666666665 237.0833333333335L644.1666666666666 297.0833333333335C612.9166666666666 274.5833333333335 577.9166666666666 260.0000000000001 541.6666666666666 254.1666666666668zM703.75 355.0000000000001L762.9166666666667 296.2500000000001C800.4166666666666 344.5833333333335 823.3333333333334 400.4166666666669 830.4166666666667 458.3333333333335H746.2500000000001C740.4166666666667 422.0833333333336 726.2500000000001 386.6666666666669 703.7500000000001 355.0000000000001z" />
    <glyph glyph-name="rotate-right-1"
      unicode="&#x72;&#x6F;&#x74;&#x61;&#x74;&#x65;&#x2D;&#x72;&#x69;&#x67;&#x68;&#x74;"
      horiz-adv-x="1000" d="M647.9166666666666 768.75L458.3333333333333 958.3333333333334V830.4166666666666C294.1666666666667 810 166.6666666666667 670 166.6666666666667 500S293.75 190 458.3333333333333 169.5833333333334V253.75C340 273.75 250 376.25 250 500S340 726.25 458.3333333333333 746.25V583.3333333333334L647.9166666666666 768.75zM830.4166666666666 541.6666666666667C823.3333333333333 599.5833333333334 800.4166666666666 655.4166666666667 762.9166666666665 703.75L703.75 644.5833333333334C726.25 613.3333333333334 740.4166666666666 577.9166666666667 746.25 541.6666666666667H830.4166666666666zM541.6666666666666 254.1666666666668V170.0000000000001C599.5833333333334 177.0833333333335 655.8333333333333 199.5833333333335 704.1666666666665 237.0833333333335L644.1666666666666 297.0833333333335C612.9166666666666 274.5833333333335 577.9166666666666 260.0000000000001 541.6666666666666 254.1666666666668zM703.75 355.0000000000001L762.9166666666667 296.2500000000001C800.4166666666666 344.5833333333335 823.3333333333334 400.4166666666669 830.4166666666667 458.3333333333335H746.2500000000001C740.4166666666667 422.0833333333336 726.2500000000001 386.6666666666669 703.7500000000001 355.0000000000001z" />
    <glyph glyph-name="refresh"
      unicode="&#xF10C;"
      horiz-adv-x="1000" d="M953.15625 968.75C927.25 968.75 906.2187500000002 947.75 906.2187500000002 921.90625V791.40625C813.1875000000001 921.5625 663.5000000000001 1000 499.9687500000001 1000C224.2812500000001 1000 1e-13 775.71875 1e-13 500.0312499999999S224.2812500000001 0 499.9687500000001 0C703.21875 0 884.6562500000001 121.4375 962.2812500000002 309.28125C967.25 321.2499999999999 966.8437500000002 334.09375 962.2812500000002 345.09375C957.7187500000002 356.21875 948.8750000000002 365.5625 936.8437500000002 370.53125C924.9687500000002 375.4375 912.09375 375.09375 901.0312500000002 370.46875C889.9687500000001 365.90625 880.5625 357.0625000000001 875.5937500000001 345.09375C812.5625000000001 192.4375 665.1562500000001 93.8125 499.9687500000001 93.8125C275.9687500000001 93.8125 93.7187500000001 276.0625 93.7187500000001 500.0624999999999S275.9687500000001 906.3125 499.9687500000001 906.3125C640.1875000000001 906.3125 767.7812500000001 835.25 842.15625 718.8125H703.0937500000001C677.2500000000001 718.8125 656.2500000000001 697.8125 656.2500000000001 671.875C656.2500000000001 646.03125 677.2500000000001 625.03125 703.0937500000001 625.03125H953.1562500000002C979.0000000000002 625.03125 1000.0000000000002 646.03125 1000.0000000000002 671.875V921.9375C1000.0000000000002 947.78125 979.0000000000002 968.78125 953.1562500000002 968.78125z" />
    <glyph glyph-name="refresh-1"
      unicode="&#x72;&#x65;&#x66;&#x72;&#x65;&#x73;&#x68;"
      horiz-adv-x="1000" d="M953.15625 968.75C927.25 968.75 906.2187500000002 947.75 906.2187500000002 921.90625V791.40625C813.1875000000001 921.5625 663.5000000000001 1000 499.9687500000001 1000C224.2812500000001 1000 1e-13 775.71875 1e-13 500.0312499999999S224.2812500000001 0 499.9687500000001 0C703.21875 0 884.6562500000001 121.4375 962.2812500000002 309.28125C967.25 321.2499999999999 966.8437500000002 334.09375 962.2812500000002 345.09375C957.7187500000002 356.21875 948.8750000000002 365.5625 936.8437500000002 370.53125C924.9687500000002 375.4375 912.09375 375.09375 901.0312500000002 370.46875C889.9687500000001 365.90625 880.5625 357.0625000000001 875.5937500000001 345.09375C812.5625000000001 192.4375 665.1562500000001 93.8125 499.9687500000001 93.8125C275.9687500000001 93.8125 93.7187500000001 276.0625 93.7187500000001 500.0624999999999S275.9687500000001 906.3125 499.9687500000001 906.3125C640.1875000000001 906.3125 767.7812500000001 835.25 842.15625 718.8125H703.0937500000001C677.2500000000001 718.8125 656.2500000000001 697.8125 656.2500000000001 671.875C656.2500000000001 646.03125 677.2500000000001 625.03125 703.0937500000001 625.03125H953.1562500000002C979.0000000000002 625.03125 1000.0000000000002 646.03125 1000.0000000000002 671.875V921.9375C1000.0000000000002 947.78125 979.0000000000002 968.78125 953.1562500000002 968.78125z" />
    <glyph glyph-name="500px"
      unicode="&#xF10D;"
      horiz-adv-x="1000" d="M818.78125 599.03125C714.875 599.03125 653.46875 500.5 649.53125 500.5C645.59375 500.5 584.59375 599.03125 479.90625 599.03125C375.21875 599.03125 345.3125 500.5 342.15625 500.5C338.9999999999999 500.5 315 581.34375 224.46875 581.34375C151.2812499999999 581.34375 141.03125 547.59375 134.7499999999999 547.59375C134.7499999999999 547.59375 140.25 583.6875 151.2812499999999 648.0625H331.9374999999999V718.75H87.53125L46.21875 482.0625000000001H125.3125C125.3125 482.0625000000001 143.40625 515.4375 191.4375 515.4375C239.4375 515.4375 268.5625 478.5312500000001 268.5625 436.9375000000001C268.5625 395.3437500000001 236.28125 349.8125000000001 191.4375 349.8125000000001C146.5625 349.8125000000001 120.59375 388.2812500000001 120.59375 414.9687500000001C83.59375 414.9687500000001 32.4375 414.9687500000001 32.4375 414.9687500000001C32.4375 391.40625 51.34375 281.25 191.4375 281.25C305.5625 281.25 342.1875 366.28125 342.1875 376.5C342.1875 367.8750000000001 386.28125 281.25 479.9375 281.25C588.5625 281.25 643.25 376.5 649.5625 376.5C655.8750000000001 376.5 720.40625 281.25 818.8125 281.25C917.2187500000002 281.25 967.59375 367.875 967.59375 440.875C967.5625 513.875 922.6875 599.03125 818.78125 599.03125zM597 439.40625H596.9687499999999C596.28125 438.5625 536.1562499999999 365.5625 480.4062499999999 365.5625C424.375 365.5625 414 421.40625 414 439.40625H414V439.4375V439.4687500000001H414C414 457.4687500000001 424.375 513.3125 480.4062499999999 513.3125C536.1562499999999 513.3125 596.2812499999999 440.3125000000001 596.9687499999999 439.4687500000001H597V439.40625L597 439.40625zM885.90625 439.40625L885.90625 439.40625C885.90625 421.40625 875.53125 365.53125 819.5 365.53125C763.75 365.53125 703.625 438.5312499999999 702.9375 439.375H702.90625L702.9375 439.40625L702.90625 439.4375H702.9375C703.625 440.2812500000001 763.75 513.28125 819.5 513.28125C875.53125 513.28125 885.875 457.4375 885.90625 439.40625L885.90625 439.40625z" />
    <glyph glyph-name="500px-1"
      unicode="&#x35;&#x30;&#x30;&#x70;&#x78;"
      horiz-adv-x="1000" d="M818.78125 599.03125C714.875 599.03125 653.46875 500.5 649.53125 500.5C645.59375 500.5 584.59375 599.03125 479.90625 599.03125C375.21875 599.03125 345.3125 500.5 342.15625 500.5C338.9999999999999 500.5 315 581.34375 224.46875 581.34375C151.2812499999999 581.34375 141.03125 547.59375 134.7499999999999 547.59375C134.7499999999999 547.59375 140.25 583.6875 151.2812499999999 648.0625H331.9374999999999V718.75H87.53125L46.21875 482.0625000000001H125.3125C125.3125 482.0625000000001 143.40625 515.4375 191.4375 515.4375C239.4375 515.4375 268.5625 478.5312500000001 268.5625 436.9375000000001C268.5625 395.3437500000001 236.28125 349.8125000000001 191.4375 349.8125000000001C146.5625 349.8125000000001 120.59375 388.2812500000001 120.59375 414.9687500000001C83.59375 414.9687500000001 32.4375 414.9687500000001 32.4375 414.9687500000001C32.4375 391.40625 51.34375 281.25 191.4375 281.25C305.5625 281.25 342.1875 366.28125 342.1875 376.5C342.1875 367.8750000000001 386.28125 281.25 479.9375 281.25C588.5625 281.25 643.25 376.5 649.5625 376.5C655.8750000000001 376.5 720.40625 281.25 818.8125 281.25C917.2187500000002 281.25 967.59375 367.875 967.59375 440.875C967.5625 513.875 922.6875 599.03125 818.78125 599.03125zM597 439.40625H596.9687499999999C596.28125 438.5625 536.1562499999999 365.5625 480.4062499999999 365.5625C424.375 365.5625 414 421.40625 414 439.40625H414V439.4375V439.4687500000001H414C414 457.4687500000001 424.375 513.3125 480.4062499999999 513.3125C536.1562499999999 513.3125 596.2812499999999 440.3125000000001 596.9687499999999 439.4687500000001H597V439.40625L597 439.40625zM885.90625 439.40625L885.90625 439.40625C885.90625 421.40625 875.53125 365.53125 819.5 365.53125C763.75 365.53125 703.625 438.5312499999999 702.9375 439.375H702.90625L702.9375 439.40625L702.90625 439.4375H702.9375C703.625 440.2812500000001 763.75 513.28125 819.5 513.28125C875.53125 513.28125 885.875 457.4375 885.90625 439.40625L885.90625 439.40625z" />
    <glyph glyph-name="adjust"
      unicode="&#xF10E;"
      horiz-adv-x="1000" d="M500 875C293.263365625 875 125 706.736634375 125 500C125 293.263375 293.263365625 125 500 125C706.736625 125 875 293.263375 875 500C875 706.736634375 706.736625 875 500 875zM500 812.5L500 187.5C327.0408750000001 187.5 187.5 327.0408750000001 187.5 500C187.5 672.959125 327.0408750000001 812.5 500 812.5z" />
    <glyph glyph-name="adjust-1"
      unicode="&#x61;&#x64;&#x6A;&#x75;&#x73;&#x74;"
      horiz-adv-x="1000" d="M500 875C293.263365625 875 125 706.736634375 125 500C125 293.263375 293.263365625 125 500 125C706.736625 125 875 293.263375 875 500C875 706.736634375 706.736625 875 500 875zM500 812.5L500 187.5C327.0408750000001 187.5 187.5 327.0408750000001 187.5 500C187.5 672.959125 327.0408750000001 812.5 500 812.5z" />
    <glyph glyph-name="adn"
      unicode="&#xF10F;"
      horiz-adv-x="1000" d="M500 875C293.263365625 875 125 706.736634375 125 500C125 293.263375 293.263365625 125 500 125C706.736625 125 875 293.263375 875 500C875 706.736634375 706.736625 875 500 875zM500 812.5C672.959125 812.5 812.5 672.959125 812.5 500C812.5 327.0408750000001 672.959125 187.5 500 187.5C327.0408750000001 187.5 187.5 327.0408750000001 187.5 500C187.5 672.959125 327.0408750000001 812.5 500 812.5zM500 689.453125L293.9453125 379.8828125L343.75 379.8828125L391.6015625 452.1484375L608.3984375 452.1484375L657.2265625 379.8828125L707.03125 379.8828125L500 689.453125zM500 614.2578125L588.8671875 481.4453125L411.1328125 481.4453125L500 614.2578125z" />
    <glyph glyph-name="adn-1"
      unicode="&#x61;&#x64;&#x6E;"
      horiz-adv-x="1000" d="M500 875C293.263365625 875 125 706.736634375 125 500C125 293.263375 293.263365625 125 500 125C706.736625 125 875 293.263375 875 500C875 706.736634375 706.736625 875 500 875zM500 812.5C672.959125 812.5 812.5 672.959125 812.5 500C812.5 327.0408750000001 672.959125 187.5 500 187.5C327.0408750000001 187.5 187.5 327.0408750000001 187.5 500C187.5 672.959125 327.0408750000001 812.5 500 812.5zM500 689.453125L293.9453125 379.8828125L343.75 379.8828125L391.6015625 452.1484375L608.3984375 452.1484375L657.2265625 379.8828125L707.03125 379.8828125L500 689.453125zM500 614.2578125L588.8671875 481.4453125L411.1328125 481.4453125L500 614.2578125z" />
    <glyph glyph-name="align-center"
      unicode="&#xF110;"
      horiz-adv-x="1000" d="M93.75 781.25L93.75 718.75L906.25 718.75L906.25 781.25L93.75 781.25zM218.75 656.25L218.75 593.75L781.25 593.75L781.25 656.25L218.75 656.25zM93.75 531.25L93.75 468.75L906.25 468.75L906.25 531.25L93.75 531.25zM218.75 406.25L218.75 343.75L781.25 343.75L781.25 406.25L218.75 406.25zM93.75 281.25L93.75 218.75L906.25 218.75L906.25 281.25L93.75 281.25z" />
    <glyph glyph-name="align-center-1"
      unicode="&#x61;&#x6C;&#x69;&#x67;&#x6E;&#x2D;&#x63;&#x65;&#x6E;&#x74;&#x65;&#x72;"
      horiz-adv-x="1000" d="M93.75 781.25L93.75 718.75L906.25 718.75L906.25 781.25L93.75 781.25zM218.75 656.25L218.75 593.75L781.25 593.75L781.25 656.25L218.75 656.25zM93.75 531.25L93.75 468.75L906.25 468.75L906.25 531.25L93.75 531.25zM218.75 406.25L218.75 343.75L781.25 343.75L781.25 406.25L218.75 406.25zM93.75 281.25L93.75 218.75L906.25 218.75L906.25 281.25L93.75 281.25z" />
    <glyph glyph-name="align-justify"
      unicode="&#xF111;"
      horiz-adv-x="1000" d="M93.75 781.25L93.75 718.75L906.25 718.75L906.25 781.25L93.75 781.25zM93.75 656.25L93.75 593.75L906.25 593.75L906.25 656.25L93.75 656.25zM93.75 531.25L93.75 468.75L906.25 468.75L906.25 531.25L93.75 531.25zM93.75 406.25L93.75 343.75L906.25 343.75L906.25 406.25L93.75 406.25zM93.75 281.25L93.75 218.75L906.25 218.75L906.25 281.25L93.75 281.25z" />
    <glyph glyph-name="align-justify-1"
      unicode="&#x61;&#x6C;&#x69;&#x67;&#x6E;&#x2D;&#x6A;&#x75;&#x73;&#x74;&#x69;&#x66;&#x79;"
      horiz-adv-x="1000" d="M93.75 781.25L93.75 718.75L906.25 718.75L906.25 781.25L93.75 781.25zM93.75 656.25L93.75 593.75L906.25 593.75L906.25 656.25L93.75 656.25zM93.75 531.25L93.75 468.75L906.25 468.75L906.25 531.25L93.75 531.25zM93.75 406.25L93.75 343.75L906.25 343.75L906.25 406.25L93.75 406.25zM93.75 281.25L93.75 218.75L906.25 218.75L906.25 281.25L93.75 281.25z" />
    <glyph glyph-name="align-left"
      unicode="&#xF112;"
      horiz-adv-x="1000" d="M93.75 781.25L93.75 718.75L906.25 718.75L906.25 781.25L93.75 781.25zM93.75 656.25L93.75 593.75L656.25 593.75L656.25 656.25L93.75 656.25zM93.75 531.25L93.75 468.75L906.25 468.75L906.25 531.25L93.75 531.25zM93.75 406.25L93.75 343.75L656.25 343.75L656.25 406.25L93.75 406.25zM93.75 281.25L93.75 218.75L906.25 218.75L906.25 281.25L93.75 281.25z" />
    <glyph glyph-name="align-left-1"
      unicode="&#x61;&#x6C;&#x69;&#x67;&#x6E;&#x2D;&#x6C;&#x65;&#x66;&#x74;"
      horiz-adv-x="1000" d="M93.75 781.25L93.75 718.75L906.25 718.75L906.25 781.25L93.75 781.25zM93.75 656.25L93.75 593.75L656.25 593.75L656.25 656.25L93.75 656.25zM93.75 531.25L93.75 468.75L906.25 468.75L906.25 531.25L93.75 531.25zM93.75 406.25L93.75 343.75L656.25 343.75L656.25 406.25L93.75 406.25zM93.75 281.25L93.75 218.75L906.25 218.75L906.25 281.25L93.75 281.25z" />
    <glyph glyph-name="align-right"
      unicode="&#xF113;"
      horiz-adv-x="1000" d="M93.75 781.25L93.75 718.75L906.25 718.75L906.25 781.25L93.75 781.25zM343.75 656.25L343.75 593.75L906.25 593.75L906.25 656.25L343.75 656.25zM93.75 531.25L93.75 468.75L906.25 468.75L906.25 531.25L93.75 531.25zM343.75 406.25L343.75 343.75L906.25 343.75L906.25 406.25L343.75 406.25zM93.75 281.25L93.75 218.75L906.25 218.75L906.25 281.25L93.75 281.25z" />
    <glyph glyph-name="align-right-1"
      unicode="&#x61;&#x6C;&#x69;&#x67;&#x6E;&#x2D;&#x72;&#x69;&#x67;&#x68;&#x74;"
      horiz-adv-x="1000" d="M93.75 781.25L93.75 718.75L906.25 718.75L906.25 781.25L93.75 781.25zM343.75 656.25L343.75 593.75L906.25 593.75L906.25 656.25L343.75 656.25zM93.75 531.25L93.75 468.75L906.25 468.75L906.25 531.25L93.75 531.25zM343.75 406.25L343.75 343.75L906.25 343.75L906.25 406.25L343.75 406.25zM93.75 281.25L93.75 218.75L906.25 218.75L906.25 281.25L93.75 281.25z" />
    <glyph glyph-name="amazon"
      unicode="&#xF114;"
      horiz-adv-x="1000" d="M505.859375 875C402.984375 875 288.7109375 836.109375 264.6484375 708.984375C262.0859375 695.484375 271.4296875 688.5234375 280.2734375 686.5234375L384.765625 675.78125C394.578125 676.28125 402.421875 685.5625 404.296875 695.3125C413.296875 739.125 449.9921875 760.7421875 491.2109375 760.7421875C513.4609375 760.7421875 538.6015625 752.328125 551.7578125 732.421875C566.9453125 710.203125 564.453125 680.046875 564.453125 654.296875L564.453125 639.6484375C501.765625 632.6171875 419.984375 628.2890625 361.328125 602.5390625C293.578125 573.2578125 246.09375 513.5625 246.09375 425.78125C246.09375 313.46875 317.171875 256.8359375 408.203125 256.8359375C485.078125 256.8359375 526.59375 275.46875 585.9375 335.9375C605.5625 307.53125 612.53125 293.546875 648.4375 263.671875C656.5 259.359375 666.671875 260.1953125 673.828125 266.6015625L673.828125 265.625C695.421875 284.84375 734.7734375 319.359375 756.8359375 337.890625C765.6171875 345.078125 763.7421875 356.3671875 756.8359375 366.2109375C737.0546875 393.5234375 716.796875 416.140625 716.796875 466.796875L716.796875 634.765625C716.796875 706.140625 721.5390625 772.1640625 668.9453125 821.2890625C627.4453125 861.1015625 558.453125 875 505.859375 875zM535.15625 552.734375C544.9004375 553.3730312499999 554.67578125 552.734375 564.453125 552.734375L564.453125 529.296875C564.453125 487.171875 566.140625 452.5078125 544.921875 415.0390625C527.734375 384.6015625 500.0703125 366.2109375 469.7265625 366.2109375C428.2578125 366.2109375 404.296875 397.5546875 404.296875 444.3359375C404.296875 524.890625 466.94684375 548.2636875000001 535.15625 552.734375zM833.984375 300.78125C806.6015625 300.40234375 774.515625 294.5625 750 277.34375C742.46875 272.03125 743.578125 264.625 751.953125 265.625C779.546875 268.9375 840.59375 276.7265625 851.5625 262.6953125C862.53125 248.6640625 839.4140625 190.8828125 829.1015625 165.0390625C825.9765625 157.2578125 832.78125 154.25 839.84375 160.15625C885.78125 198.59375 898.078125 278.3828125 888.671875 290.0390625C884 295.8046875 861.3671875 301.16015625 833.984375 300.78125zM114.2578125 286.1328125C108.54785 285.379875 106.28125 277.8984375 112.3046875 272.4609375C214.4609375 180.2421875 349.1484375 125 499.0234375 125C605.9609375 125 730.75 158.4609375 816.40625 221.6796875C830.5625 232.1484375 818.2109375 248.34375 803.7109375 242.1875C707.6796875 201.4375 602.75 181.640625 507.8125 181.640625C367.0625 181.640625 231.28125 220.0546875 121.09375 284.1796875C118.6796875 285.5859375 116.16113125 286.38378125 114.2578125 286.1328125z" />
    <glyph glyph-name="amazon-1"
      unicode="&#x61;&#x6D;&#x61;&#x7A;&#x6F;&#x6E;"
      horiz-adv-x="1000" d="M505.859375 875C402.984375 875 288.7109375 836.109375 264.6484375 708.984375C262.0859375 695.484375 271.4296875 688.5234375 280.2734375 686.5234375L384.765625 675.78125C394.578125 676.28125 402.421875 685.5625 404.296875 695.3125C413.296875 739.125 449.9921875 760.7421875 491.2109375 760.7421875C513.4609375 760.7421875 538.6015625 752.328125 551.7578125 732.421875C566.9453125 710.203125 564.453125 680.046875 564.453125 654.296875L564.453125 639.6484375C501.765625 632.6171875 419.984375 628.2890625 361.328125 602.5390625C293.578125 573.2578125 246.09375 513.5625 246.09375 425.78125C246.09375 313.46875 317.171875 256.8359375 408.203125 256.8359375C485.078125 256.8359375 526.59375 275.46875 585.9375 335.9375C605.5625 307.53125 612.53125 293.546875 648.4375 263.671875C656.5 259.359375 666.671875 260.1953125 673.828125 266.6015625L673.828125 265.625C695.421875 284.84375 734.7734375 319.359375 756.8359375 337.890625C765.6171875 345.078125 763.7421875 356.3671875 756.8359375 366.2109375C737.0546875 393.5234375 716.796875 416.140625 716.796875 466.796875L716.796875 634.765625C716.796875 706.140625 721.5390625 772.1640625 668.9453125 821.2890625C627.4453125 861.1015625 558.453125 875 505.859375 875zM535.15625 552.734375C544.9004375 553.3730312499999 554.67578125 552.734375 564.453125 552.734375L564.453125 529.296875C564.453125 487.171875 566.140625 452.5078125 544.921875 415.0390625C527.734375 384.6015625 500.0703125 366.2109375 469.7265625 366.2109375C428.2578125 366.2109375 404.296875 397.5546875 404.296875 444.3359375C404.296875 524.890625 466.94684375 548.2636875000001 535.15625 552.734375zM833.984375 300.78125C806.6015625 300.40234375 774.515625 294.5625 750 277.34375C742.46875 272.03125 743.578125 264.625 751.953125 265.625C779.546875 268.9375 840.59375 276.7265625 851.5625 262.6953125C862.53125 248.6640625 839.4140625 190.8828125 829.1015625 165.0390625C825.9765625 157.2578125 832.78125 154.25 839.84375 160.15625C885.78125 198.59375 898.078125 278.3828125 888.671875 290.0390625C884 295.8046875 861.3671875 301.16015625 833.984375 300.78125zM114.2578125 286.1328125C108.54785 285.3798750000001 106.28125 277.8984375 112.3046875 272.4609375C214.4609375 180.2421875 349.1484375 125 499.0234375 125C605.9609375 125 730.75 158.4609375 816.40625 221.6796875C830.5625 232.1484375 818.2109375 248.34375 803.7109375 242.1875C707.6796875 201.4375 602.75 181.640625 507.8125 181.640625C367.0625 181.640625 231.28125 220.0546875 121.09375 284.1796875C118.6796875 285.5859375 116.16113125 286.3837812500001 114.2578125 286.1328125z" />
    <glyph glyph-name="ambulance"
      unicode="&#xF115;"
      horiz-adv-x="1000" d="M562.5 906.25C527.96875 906.25 500 878.28125 500 843.75L500 812.5L62.5 812.5L31.25 812.5L31.25 781.25L31.25 250L31.25 218.75L62.5 218.75L129.8828125 218.75C143.8536125 165.0049375 192.087559375 125 250 125C307.91243125 125 356.1463750000001 165.0049375 370.1171875 218.75L629.8828125 218.75C643.853625 165.0049375 692.0875625 125 750 125C807.9124375 125 856.146375 165.0049375 870.1171875 218.75L937.5 218.75L968.75 218.75L968.75 250L968.75 562.5L968.75 574.21875L960.9375 583.0078125L773.4375 801.7578125L764.6484375 812.5L750 812.5L625 812.5L625 843.75C625 878.28125 597.03125 906.25 562.5 906.25zM93.75 750L735.3515625 750L906.25 550.78125L906.25 281.25L870.1171875 281.25C856.146375 334.9950625 807.9124375 375 750 375C692.0875625 375 643.853625 334.9950625 629.8828125 281.25L370.1171875 281.25C356.1463750000001 334.9950625 307.91243125 375 250 375C192.087559375 375 143.8536125 334.9950625 129.8828125 281.25L93.75 281.25L93.75 750zM437.5 656.25L437.5 562.5L343.75 562.5L343.75 500L437.5 500L437.5 406.25L500 406.25L500 500L593.75 500L593.75 562.5L500 562.5L500 656.25L437.5 656.25zM250 312.5C284.8879375 312.5 312.5 284.8879375 312.5 250C312.5 215.1120625 284.8879375 187.5 250 187.5C215.1120625 187.5 187.5 215.1120625 187.5 250C187.5 284.8879375 215.1120625 312.5 250 312.5zM750 312.5C784.8879375 312.5 812.5 284.8879375 812.5 250C812.5 215.1120625 784.8879375 187.5 750 187.5C715.1120625 187.5 687.5 215.1120625 687.5 250C687.5 284.8879375 715.1120625 312.5 750 312.5z" />
    <glyph glyph-name="ambulance-1"
      unicode="&#x61;&#x6D;&#x62;&#x75;&#x6C;&#x61;&#x6E;&#x63;&#x65;"
      horiz-adv-x="1000" d="M562.5 906.25C527.96875 906.25 500 878.28125 500 843.75L500 812.5L62.5 812.5L31.25 812.5L31.25 781.25L31.25 250L31.25 218.75L62.5 218.75L129.8828125 218.75C143.8536125 165.0049375 192.087559375 125 250 125C307.91243125 125 356.1463750000001 165.0049375 370.1171875 218.75L629.8828125 218.75C643.853625 165.0049375 692.0875625 125 750 125C807.9124375 125 856.146375 165.0049375 870.1171875 218.75L937.5 218.75L968.75 218.75L968.75 250L968.75 562.5L968.75 574.21875L960.9375 583.0078125L773.4375 801.7578125L764.6484375 812.5L750 812.5L625 812.5L625 843.75C625 878.28125 597.03125 906.25 562.5 906.25zM93.75 750L735.3515625 750L906.25 550.78125L906.25 281.25L870.1171875 281.25C856.146375 334.9950625 807.9124375 375 750 375C692.0875625 375 643.853625 334.9950625 629.8828125 281.25L370.1171875 281.25C356.1463750000001 334.9950625 307.91243125 375 250 375C192.087559375 375 143.8536125 334.9950625 129.8828125 281.25L93.75 281.25L93.75 750zM437.5 656.25L437.5 562.5L343.75 562.5L343.75 500L437.5 500L437.5 406.25L500 406.25L500 500L593.75 500L593.75 562.5L500 562.5L500 656.25L437.5 656.25zM250 312.5C284.8879375 312.5 312.5 284.8879375 312.5 250C312.5 215.1120625 284.8879375 187.5 250 187.5C215.1120625 187.5 187.5 215.1120625 187.5 250C187.5 284.8879375 215.1120625 312.5 250 312.5zM750 312.5C784.8879375 312.5 812.5 284.8879375 812.5 250C812.5 215.1120625 784.8879375 187.5 750 187.5C715.1120625 187.5 687.5 215.1120625 687.5 250C687.5 284.8879375 715.1120625 312.5 750 312.5z" />
    <glyph glyph-name="anchor"
      unicode="&#xF116;"
      horiz-adv-x="1000" d="M500 875C431.3345625 875 375 818.66545 375 750C375 692.08756875 415.0049375 643.853625 468.75 629.8828125L468.75 562.5L375 562.5L375 500L468.75 500L468.75 250.9765625C392.933 256.9969062500001 342.4774375 284.695375 306.640625 316.40625C279.316790625 340.58425 261.029409375 367.12709375 248.046875 389.6484375L297.8515625 414.0625L172.8515625 470.703125L139.6484375 335.9375L191.40625 361.328125C206.181296875 334.80759375 229.174765625 300.9208125 264.6484375 269.53125C310.1110093750001 229.3028125 377.09384375 195.90628125 468.75 189.453125L468.75 187.5L500 156.25L531.25 187.5L531.25 189.453125C622.90615625 195.90628125 689.889 229.3028125 735.3515625 269.53125C770.82521875 300.9208125 793.8186874999999 334.80759375 808.59375 361.328125L860.3515625 335.9375L827.1484375 470.703125L702.1484375 414.0625L751.953125 389.6484375C738.9705937499999 367.12709375 720.6832187499999 340.58425 693.359375 316.40625C657.5225624999999 284.695375 607.067 256.9969062500001 531.25 250.9765625L531.25 500L625 500L625 562.5L531.25 562.5L531.25 629.8828125C584.9950625 643.853625 625 692.08756875 625 750C625 818.66545 568.6654374999999 875 500 875zM500 812.5C534.8879375 812.5 562.5 784.8879375 562.5 750C562.5 715.1120625 534.8879375 687.5 500 687.5C465.1120625 687.5 437.5 715.1120625 437.5 750C437.5 784.8879375 465.1120625 812.5 500 812.5z" />
    <glyph glyph-name="anchor-1"
      unicode="&#x61;&#x6E;&#x63;&#x68;&#x6F;&#x72;"
      horiz-adv-x="1000" d="M500 875C431.3345625 875 375 818.66545 375 750C375 692.08756875 415.0049375 643.853625 468.75 629.8828125L468.75 562.5L375 562.5L375 500L468.75 500L468.75 250.9765625C392.933 256.9969062500001 342.4774375 284.695375 306.640625 316.40625C279.316790625 340.58425 261.029409375 367.12709375 248.046875 389.6484375L297.8515625 414.0625L172.8515625 470.703125L139.6484375 335.9375L191.40625 361.328125C206.181296875 334.80759375 229.174765625 300.9208125 264.6484375 269.53125C310.1110093750001 229.3028125 377.09384375 195.90628125 468.75 189.453125L468.75 187.5L500 156.25L531.25 187.5L531.25 189.453125C622.90615625 195.90628125 689.889 229.3028125 735.3515625 269.53125C770.82521875 300.9208125 793.8186874999999 334.80759375 808.59375 361.328125L860.3515625 335.9375L827.1484375 470.703125L702.1484375 414.0625L751.953125 389.6484375C738.9705937499999 367.12709375 720.6832187499999 340.58425 693.359375 316.40625C657.5225624999999 284.695375 607.067 256.9969062500001 531.25 250.9765625L531.25 500L625 500L625 562.5L531.25 562.5L531.25 629.8828125C584.9950625 643.853625 625 692.08756875 625 750C625 818.66545 568.6654374999999 875 500 875zM500 812.5C534.8879375 812.5 562.5 784.8879375 562.5 750C562.5 715.1120625 534.8879375 687.5 500 687.5C465.1120625 687.5 437.5 715.1120625 437.5 750C437.5 784.8879375 465.1120625 812.5 500 812.5z" />
    <glyph glyph-name="android"
      unicode="&#xF117;"
      horiz-adv-x="1000" d="M329.1015625 890.625A15.626562499999999 15.626562499999999 0 0 1 321.2890625 865.234375L367.1875 798.828125C315.1073125000001 758.7732 281.25 695.4968875 281.25 625L281.25 312.5C281.25 290.5534062500001 295.07511875 274.8420625 312.5 263.671875L312.5 171.875C312.5 129.09178125 347.84178125 93.75 390.625 93.75C433.40821875 93.75 468.75 129.09178125 468.75 171.875L468.75 250L531.25 250L531.25 171.875C531.25 129.09178125 566.5917812499999 93.75 609.375 93.75C652.1582187500001 93.75 687.5 129.09178125 687.5 171.875L687.5 263.671875C704.924875 274.8420625 718.75 290.5534062500001 718.75 312.5L718.75 625C718.75 695.4968875 684.8926875 758.7732 632.8125 798.828125L678.7109375 865.234375A15.626562499999999 15.626562499999999 0 0 1 666.015625 890.625A15.626562499999999 15.626562499999999 0 0 1 663.0859375 890.625A15.626562499999999 15.626562499999999 0 0 1 653.3203125 882.8125L606.4453125 816.40625C574.9947812500001 833.951053125 538.4350625 843.75 500 843.75C461.5649375 843.75 425.0052187500001 833.951053125 393.5546875 816.40625L346.6796875 882.8125A15.626562499999999 15.626562499999999 0 0 1 333.984375 890.625A15.626562499999999 15.626562499999999 0 0 1 331.0546875 890.625A15.626562499999999 15.626562499999999 0 0 1 329.1015625 890.625zM500 781.25C575.8424375 781.25 638.8185937500001 727.63355625 653.3203125 656.25L346.6796875 656.25C361.18140625 727.63355625 424.1575625 781.25 500 781.25zM437.5 750C420.24109375 750 406.25 736.008896875 406.25 718.75C406.25 701.491103125 420.24109375 687.5 437.5 687.5C454.75890625 687.5 468.75 701.491103125 468.75 718.75C468.75 736.008896875 454.75890625 750 437.5 750zM562.5 750C545.24109375 750 531.25 736.008896875 531.25 718.75C531.25 701.491103125 545.24109375 687.5 562.5 687.5C579.75890625 687.5 593.75 701.491103125 593.75 718.75C593.75 736.008896875 579.75890625 750 562.5 750zM187.5 656.25L187.5 343.75L250 343.75L250 656.25L187.5 656.25zM750 656.25L750 343.75L812.5 343.75L812.5 656.25L750 656.25zM343.75 593.75L656.25 593.75L656.25 312.5L625 312.5L625 281.25L625 171.875C625 162.90821875 618.34178125 156.25 609.375 156.25C600.40821875 156.25 593.75 162.90821875 593.75 171.875L593.75 281.25L593.75 312.5L562.5 312.5L437.5 312.5L406.25 312.5L406.25 281.25L406.25 171.875C406.25 162.90821875 399.59178125 156.25 390.625 156.25C381.65821875 156.25 375 162.90821875 375 171.875L375 281.25L375 312.5L343.75 312.5L343.75 593.75z" />
    <glyph glyph-name="android-1"
      unicode="&#x61;&#x6E;&#x64;&#x72;&#x6F;&#x69;&#x64;"
      horiz-adv-x="1000" d="M329.1015625 890.625A15.626562499999999 15.626562499999999 0 0 1 321.2890625 865.234375L367.1875 798.828125C315.1073125000001 758.7732 281.25 695.4968875 281.25 625L281.25 312.5C281.25 290.5534062500001 295.07511875 274.8420625 312.5 263.671875L312.5 171.875C312.5 129.09178125 347.84178125 93.75 390.625 93.75C433.40821875 93.75 468.75 129.09178125 468.75 171.875L468.75 250L531.25 250L531.25 171.875C531.25 129.09178125 566.5917812499999 93.75 609.375 93.75C652.1582187500001 93.75 687.5 129.09178125 687.5 171.875L687.5 263.671875C704.924875 274.8420625 718.75 290.5534062500001 718.75 312.5L718.75 625C718.75 695.4968875 684.8926875 758.7732 632.8125 798.828125L678.7109375 865.234375A15.626562499999999 15.626562499999999 0 0 1 666.015625 890.625A15.626562499999999 15.626562499999999 0 0 1 663.0859375 890.625A15.626562499999999 15.626562499999999 0 0 1 653.3203125 882.8125L606.4453125 816.40625C574.9947812500001 833.951053125 538.4350625 843.75 500 843.75C461.5649375 843.75 425.0052187500001 833.951053125 393.5546875 816.40625L346.6796875 882.8125A15.626562499999999 15.626562499999999 0 0 1 333.984375 890.625A15.626562499999999 15.626562499999999 0 0 1 331.0546875 890.625A15.626562499999999 15.626562499999999 0 0 1 329.1015625 890.625zM500 781.25C575.8424375 781.25 638.8185937500001 727.63355625 653.3203125 656.25L346.6796875 656.25C361.18140625 727.63355625 424.1575625 781.25 500 781.25zM437.5 750C420.24109375 750 406.25 736.008896875 406.25 718.75C406.25 701.491103125 420.24109375 687.5 437.5 687.5C454.75890625 687.5 468.75 701.491103125 468.75 718.75C468.75 736.008896875 454.75890625 750 437.5 750zM562.5 750C545.24109375 750 531.25 736.008896875 531.25 718.75C531.25 701.491103125 545.24109375 687.5 562.5 687.5C579.75890625 687.5 593.75 701.491103125 593.75 718.75C593.75 736.008896875 579.75890625 750 562.5 750zM187.5 656.25L187.5 343.75L250 343.75L250 656.25L187.5 656.25zM750 656.25L750 343.75L812.5 343.75L812.5 656.25L750 656.25zM343.75 593.75L656.25 593.75L656.25 312.5L625 312.5L625 281.25L625 171.875C625 162.90821875 618.34178125 156.25 609.375 156.25C600.40821875 156.25 593.75 162.90821875 593.75 171.875L593.75 281.25L593.75 312.5L562.5 312.5L437.5 312.5L406.25 312.5L406.25 281.25L406.25 171.875C406.25 162.90821875 399.59178125 156.25 390.625 156.25C381.65821875 156.25 375 162.90821875 375 171.875L375 281.25L375 312.5L343.75 312.5L343.75 593.75z" />
    <glyph glyph-name="angellist"
      unicode="&#xF118;"
      horiz-adv-x="1000" d="M400.390625 875C390.62953125 875.64948125 380.55484375 873.919178125 371.09375 870.1171875C353.002875 862.848746875 340.646 846.788396875 334.9609375 831.0546875C329.275875 815.320978125 327.68621875 799.1932375 328.125 782.2265625C329.0025 748.2932125 337.48359375 710.473953125 347.65625 673.828125C355.98215625 643.83503125 365.4816875 615.7813125 374.0234375 591.796875C368.903 592.7445312499999 363.6853125 593.03284375 358.3984375 592.7734375C347.16625 592.2221875 336.13525 588.4708125 326.171875 582.03125C301.779465625 566.2594375 286.966134375 541.2443437500001 284.1796875 517.578125C281.6718937500001 496.27853125 286.5724 477.08359375 292.96875 459.9609375C276.096425 458.23921875 259.65623125 452.68753125 247.0703125 440.4296875C226.903259375 420.78834375 218.75 392.0973437500001 218.75 358.3984375C218.75 247.41146875 277.828715625 182.3765000000001 340.8203125 153.3203125C403.81190625 124.2641249999999 469.94684375 125 495.1171875 125C522.4774375 125 585.54371875 127.3443749999999 643.5546875 166.9921875C701.56565625 206.6399375 750 285.1444062500001 750 416.9921875C750 428.39571875 758.58025 479.28515625 726.5625 522.4609375C719.68175 531.73959375 710.45990625 540.09371875 700.1953125 547.8515625C706.428625 568.24425 721.3658125 617.47590625 733.3984375 678.7109375C740.8299687499999 716.5307124999999 746.734875 754.953353125 746.09375 788.0859375C745.773125 804.652228125 744.2240625 819.9925812500001 738.28125 834.9609375C732.338375 849.9292937499999 717.8745625 866.775978125 698.2421875 871.09375C678.2935624999999 875.47195 657.82440625 871.43559375 641.6015625 862.3046875C625.37871875 853.173778125 613.3474375 840.01466875 602.5390625 825.1953125C580.92228125 795.5566 564.9538125 758.2261187500001 552.734375 720.703125C548.5525624999999 707.861803125 545.38553125 695.14441875 541.9921875 682.6171875C536.6128437499999 697.7336937499999 530.86959375 712.9483875000001 524.4140625 728.515625C508.74025 766.312378125 490.4229375 803.588603125 467.7734375 832.03125C456.4486875 846.2525718750001 444.0045937500001 858.9199875 427.734375 867.1875C419.59925 871.32125625 410.15171875 874.35051875 400.390625 875zM395.5078125 813.4765625C396.18696875 813.389090625 397.3375000000001 812.57859375 399.4140625 811.5234375C403.5670625 809.413125 411.04984375 802.8836562500001 418.9453125 792.96875C434.7362187500001 773.138934375 452.27146875 740.105590625 466.796875 705.078125C485.29284375 660.4758125 497.8800625 621.8624374999999 505.859375 593.75C505.17090625 593.75171875 504.5983125 593.75 503.90625 593.75C482.05528125 593.75 462.06846875 584.7439374999999 448.2421875 571.2890625C441.01615625 588.87603125 422.7674375000001 634.4454375 407.2265625 690.4296875C397.7703125 724.494796875 391.25621875 758.794678125 390.625 783.203125C390.309375 795.40735 391.9721875 805.190984375 393.5546875 809.5703125C394.3459375000001 811.7599749999999 394.6698437500001 812.29120625 394.53125 812.5C394.94959375 812.665784375 395.1003437500001 813.529046875 395.5078125 813.4765625zM676.7578125 808.59375C678.2226875 808.59114375 679.41790625 808.554296875 680.6640625 808.59375C681.8921875 804.22555625 683.393125 797.469875 683.59375 787.109375C684.06875 762.5564125 678.86925 727.0005375000001 671.875 691.40625C662.14734375 641.9013749999999 650.980875 601.796 643.5546875 576.171875C626.3158125 581.60190625 606.5090937499999 585.9251875 583.984375 588.8671875C588.73246875 614.87796875 597.0567500000001 654.3491562500001 612.3046875 701.171875C623.4368125000001 735.3559124999999 637.732 768.051796875 652.34375 788.0859375C659.649625 798.10300625 666.6141875 804.656178125 671.875 807.6171875C673.55846875 808.56471875 675.2929375 808.59635625 676.7578125 808.59375zM503.90625 531.25C619.0846875 531.25 661.5411875 504.89453125 676.7578125 484.375C691.9744375 463.85546875 687.5 442.68240625 687.5 416.9921875C687.5 299.6524687499999 649.67653125 246.9616249999999 608.3984375 218.75C567.12034375 190.5383750000001 517.8506874999999 187.5 495.1171875 187.5C470.19378125 187.5 414.23496875 188.2593125000001 367.1875 209.9609375C320.14003125 231.6625624999999 281.25 267.5416562500001 281.25 358.3984375C281.25 381.7776562500001 287.54400625 393.10325 291.015625 396.484375C294.48724375 399.8655 297.806271875 401.20984375 309.5703125 398.4375C328.5336875 393.96853125 361.70265625 371.0766875000001 392.578125 330.078125C399.7231875 320.59040625 406.33359375 310.2704062500001 413.0859375 298.828125C411.1265625000001 296.5134375 405.2465000000001 292.96875 401.3671875 292.96875C396.6578125 292.96875 392.070875 294.374375 383.7890625 301.7578125C375.50725 309.14115625 365.3170625 323.0637187499999 354.4921875 339.84375L301.7578125 305.6640625C313.9954375 286.69409375 326.24275 269.72603125 341.796875 255.859375C357.351 241.99271875 378.2328125 230.46875 401.3671875 230.46875C425.331625 230.46875 446.389125 241.60365625 460.9375 258.7890625C464.668 263.19575 465.3 269.646125 467.7734375 275.390625C472.349625 262.54575 477.4948125 250.87065625 483.3984375 242.1875C496.610625 222.75484375 512.6953125 212.890625 512.6953125 212.890625L546.875 264.6484375C546.875 264.6484375 542.2878125 266.8546875 535.15625 277.34375C528.0246875 287.83296875 520.5078125 304.96853125 520.5078125 332.03125C520.5078125 341.80603125 521.9936875 349.7602812500001 525.390625 356.4453125C530.96984375 367.42496875 540.88278125 375.01065625 551.7578125 381.8359375C569.2541562499999 392.8168437500001 586.9140625 396.484375 586.9140625 396.484375A31.253124999999997 31.253124999999997 0 0 1 588.8671875 457.03125C588.8671875 457.03125 539.3150625000001 471.85725 500 483.3984375C497.52378125 484.12603125 495.0894375 485.56128125 493.1640625 487.3046875C492.46965625 487.9334375 491.82553125 488.518125 491.2109375 489.2578125C489.819125 491.4928125 488.72946875 493.9053437499999 487.3046875 496.09375C485.559125 500.6358125 484.8833125 506.129125 485.3515625 511.71875C485.9134375 518.4263125 488.48190625 523.4024999999999 491.2109375 526.3671875C493.93996875 529.3318750000001 496.153625 531.25 503.90625 531.25zM359.375 530.2734375C360.698125 531.12875 360.8140625 531.084375 368.1640625 528.3203125C375.51415625 525.55625 387.23034375 517.91796875 399.4140625 505.859375C423.78153125 481.7421875 450.04046875 441.2594375 466.796875 398.4375C470.73653125 388.37271875 469.789375 385.952625 468.75 383.7890625C467.710625 381.625625 464.6049375 378.5889062499999 458.984375 375.9765625C453.3638125 373.364375 445.3025 371.93534375 440.4296875 372.0703125C435.556875 372.2046875 436.2435625 376.20475 442.3828125 368.1640625L440.4296875 367.1875C421.702875 392.902625 402.55978125 413.88934375 381.8359375 429.6875C381.8359375 429.6875 362.67384375 452.4754375 352.5390625 477.5390625C347.47165625 490.070875 345.73078125 502.6828125 346.6796875 510.7421875C347.6284375 518.8015625 348.751875 523.404625 359.375 530.2734375z" />
    <glyph glyph-name="angellist-1"
      unicode="&#x61;&#x6E;&#x67;&#x65;&#x6C;&#x6C;&#x69;&#x73;&#x74;"
      horiz-adv-x="1000" d="M400.390625 875C390.62953125 875.64948125 380.55484375 873.919178125 371.09375 870.1171875C353.002875 862.848746875 340.646 846.788396875 334.9609375 831.0546875C329.275875 815.320978125 327.68621875 799.1932375 328.125 782.2265625C329.0025 748.2932125 337.48359375 710.473953125 347.65625 673.828125C355.98215625 643.83503125 365.4816875 615.7813125 374.0234375 591.796875C368.903 592.7445312499999 363.6853125 593.03284375 358.3984375 592.7734375C347.16625 592.2221875 336.13525 588.4708125 326.171875 582.03125C301.779465625 566.2594375 286.966134375 541.2443437500001 284.1796875 517.578125C281.6718937500001 496.27853125 286.5724 477.08359375 292.96875 459.9609375C276.096425 458.23921875 259.65623125 452.68753125 247.0703125 440.4296875C226.903259375 420.78834375 218.75 392.0973437500001 218.75 358.3984375C218.75 247.41146875 277.828715625 182.3765000000001 340.8203125 153.3203125C403.81190625 124.2641249999999 469.94684375 125 495.1171875 125C522.4774375 125 585.54371875 127.3443749999999 643.5546875 166.9921875C701.56565625 206.6399375 750 285.1444062500001 750 416.9921875C750 428.39571875 758.58025 479.28515625 726.5625 522.4609375C719.68175 531.73959375 710.45990625 540.09371875 700.1953125 547.8515625C706.428625 568.24425 721.3658125 617.47590625 733.3984375 678.7109375C740.8299687499999 716.5307124999999 746.734875 754.953353125 746.09375 788.0859375C745.773125 804.652228125 744.2240625 819.9925812500001 738.28125 834.9609375C732.338375 849.9292937499999 717.8745625 866.775978125 698.2421875 871.09375C678.2935624999999 875.47195 657.82440625 871.43559375 641.6015625 862.3046875C625.37871875 853.173778125 613.3474375 840.01466875 602.5390625 825.1953125C580.92228125 795.5566 564.9538125 758.2261187500001 552.734375 720.703125C548.5525624999999 707.861803125 545.38553125 695.14441875 541.9921875 682.6171875C536.6128437499999 697.7336937499999 530.86959375 712.9483875000001 524.4140625 728.515625C508.74025 766.312378125 490.4229375 803.588603125 467.7734375 832.03125C456.4486875 846.2525718750001 444.0045937500001 858.9199875 427.734375 867.1875C419.59925 871.32125625 410.15171875 874.35051875 400.390625 875zM395.5078125 813.4765625C396.18696875 813.389090625 397.3375000000001 812.57859375 399.4140625 811.5234375C403.5670625 809.413125 411.04984375 802.8836562500001 418.9453125 792.96875C434.7362187500001 773.138934375 452.27146875 740.105590625 466.796875 705.078125C485.29284375 660.4758125 497.8800625 621.8624374999999 505.859375 593.75C505.17090625 593.75171875 504.5983125 593.75 503.90625 593.75C482.05528125 593.75 462.06846875 584.7439374999999 448.2421875 571.2890625C441.01615625 588.87603125 422.7674375000001 634.4454375 407.2265625 690.4296875C397.7703125 724.494796875 391.25621875 758.794678125 390.625 783.203125C390.309375 795.40735 391.9721875 805.190984375 393.5546875 809.5703125C394.3459375000001 811.7599749999999 394.6698437500001 812.29120625 394.53125 812.5C394.94959375 812.665784375 395.1003437500001 813.529046875 395.5078125 813.4765625zM676.7578125 808.59375C678.2226875 808.59114375 679.41790625 808.554296875 680.6640625 808.59375C681.8921875 804.22555625 683.393125 797.469875 683.59375 787.109375C684.06875 762.5564125 678.86925 727.0005375000001 671.875 691.40625C662.14734375 641.9013749999999 650.980875 601.796 643.5546875 576.171875C626.3158125 581.60190625 606.5090937499999 585.9251875 583.984375 588.8671875C588.73246875 614.87796875 597.0567500000001 654.3491562500001 612.3046875 701.171875C623.4368125000001 735.3559124999999 637.732 768.051796875 652.34375 788.0859375C659.649625 798.10300625 666.6141875 804.656178125 671.875 807.6171875C673.55846875 808.56471875 675.2929375 808.59635625 676.7578125 808.59375zM503.90625 531.25C619.0846875 531.25 661.5411875 504.89453125 676.7578125 484.375C691.9744375 463.85546875 687.5 442.68240625 687.5 416.9921875C687.5 299.6524687499999 649.67653125 246.9616249999999 608.3984375 218.75C567.12034375 190.5383750000001 517.8506874999999 187.5 495.1171875 187.5C470.19378125 187.5 414.23496875 188.2593125000001 367.1875 209.9609375C320.14003125 231.6625624999999 281.25 267.5416562500001 281.25 358.3984375C281.25 381.7776562500001 287.54400625 393.10325 291.015625 396.484375C294.48724375 399.8655 297.806271875 401.20984375 309.5703125 398.4375C328.5336875 393.96853125 361.70265625 371.0766875000001 392.578125 330.078125C399.7231875 320.59040625 406.33359375 310.2704062500001 413.0859375 298.828125C411.1265625000001 296.5134375 405.2465000000001 292.96875 401.3671875 292.96875C396.6578125 292.96875 392.070875 294.374375 383.7890625 301.7578125C375.50725 309.14115625 365.3170625 323.0637187499999 354.4921875 339.84375L301.7578125 305.6640625C313.9954375 286.69409375 326.24275 269.72603125 341.796875 255.859375C357.351 241.99271875 378.2328125 230.46875 401.3671875 230.46875C425.331625 230.46875 446.389125 241.60365625 460.9375 258.7890625C464.668 263.19575 465.3 269.646125 467.7734375 275.390625C472.349625 262.54575 477.4948125 250.87065625 483.3984375 242.1875C496.610625 222.75484375 512.6953125 212.890625 512.6953125 212.890625L546.875 264.6484375C546.875 264.6484375 542.2878125 266.8546875 535.15625 277.34375C528.0246875 287.83296875 520.5078125 304.96853125 520.5078125 332.03125C520.5078125 341.80603125 521.9936875 349.7602812500001 525.390625 356.4453125C530.96984375 367.42496875 540.88278125 375.01065625 551.7578125 381.8359375C569.2541562499999 392.8168437500001 586.9140625 396.484375 586.9140625 396.484375A31.253124999999997 31.253124999999997 0 0 1 588.8671875 457.03125C588.8671875 457.03125 539.3150625000001 471.85725 500 483.3984375C497.52378125 484.12603125 495.0894375 485.56128125 493.1640625 487.3046875C492.46965625 487.9334375 491.82553125 488.518125 491.2109375 489.2578125C489.819125 491.4928125 488.72946875 493.9053437499999 487.3046875 496.09375C485.559125 500.6358125 484.8833125 506.129125 485.3515625 511.71875C485.9134375 518.4263125 488.48190625 523.4024999999999 491.2109375 526.3671875C493.93996875 529.3318750000001 496.153625 531.25 503.90625 531.25zM359.375 530.2734375C360.698125 531.12875 360.8140625 531.084375 368.1640625 528.3203125C375.51415625 525.55625 387.23034375 517.91796875 399.4140625 505.859375C423.78153125 481.7421875 450.04046875 441.2594375 466.796875 398.4375C470.73653125 388.37271875 469.789375 385.952625 468.75 383.7890625C467.710625 381.625625 464.6049375 378.5889062499999 458.984375 375.9765625C453.3638125 373.364375 445.3025 371.93534375 440.4296875 372.0703125C435.556875 372.2046875 436.2435625 376.20475 442.3828125 368.1640625L440.4296875 367.1875C421.702875 392.902625 402.55978125 413.88934375 381.8359375 429.6875C381.8359375 429.6875 362.67384375 452.4754375 352.5390625 477.5390625C347.47165625 490.070875 345.73078125 502.6828125 346.6796875 510.7421875C347.6284375 518.8015625 348.751875 523.404625 359.375 530.2734375z" />
    <glyph glyph-name="angle-double-down"
      unicode="&#xF119;"
      horiz-adv-x="1000" d="M163.0859375 791.015625L118.1640625 747.0703125L477.5390625 387.6953125L500 365.234375L522.4609375 387.6953125L881.8359375 747.0703125L836.9140625 791.015625L500 454.1015625L163.0859375 791.015625zM163.0859375 572.265625L118.1640625 528.3203125L477.5390625 168.9453125L500 146.484375L522.4609375 168.9453125L881.8359375 528.3203125L836.9140625 572.265625L500 235.3515625L163.0859375 572.265625z" />
    <glyph glyph-name="angle-double-down-1"
      unicode="&#x61;&#x6E;&#x67;&#x6C;&#x65;&#x2D;&#x64;&#x6F;&#x75;&#x62;&#x6C;&#x65;&#x2D;&#x64;&#x6F;&#x77;&#x6E;"
      horiz-adv-x="1000" d="M163.0859375 791.015625L118.1640625 747.0703125L477.5390625 387.6953125L500 365.234375L522.4609375 387.6953125L881.8359375 747.0703125L836.9140625 791.015625L500 454.1015625L163.0859375 791.015625zM163.0859375 572.265625L118.1640625 528.3203125L477.5390625 168.9453125L500 146.484375L522.4609375 168.9453125L881.8359375 528.3203125L836.9140625 572.265625L500 235.3515625L163.0859375 572.265625z" />
    <glyph glyph-name="angle-double-left"
      unicode="&#xF11A;"
      horiz-adv-x="1000" d="M497.0703125 850.5859375L168.9453125 522.4609375L146.484375 500L168.9453125 477.5390625L497.0703125 149.4140625L541.015625 194.3359375L235.3515625 500L541.015625 805.6640625L497.0703125 850.5859375zM715.8203125 850.5859375L387.6953125 522.4609375L365.234375 500L387.6953125 477.5390625L715.8203125 149.4140625L759.765625 194.3359375L454.1015625 500L759.765625 805.6640625L715.8203125 850.5859375z" />
    <glyph glyph-name="angle-double-left-1"
      unicode="&#x61;&#x6E;&#x67;&#x6C;&#x65;&#x2D;&#x64;&#x6F;&#x75;&#x62;&#x6C;&#x65;&#x2D;&#x6C;&#x65;&#x66;&#x74;"
      horiz-adv-x="1000" d="M497.0703125 850.5859375L168.9453125 522.4609375L146.484375 500L168.9453125 477.5390625L497.0703125 149.4140625L541.015625 194.3359375L235.3515625 500L541.015625 805.6640625L497.0703125 850.5859375zM715.8203125 850.5859375L387.6953125 522.4609375L365.234375 500L387.6953125 477.5390625L715.8203125 149.4140625L759.765625 194.3359375L454.1015625 500L759.765625 805.6640625L715.8203125 850.5859375z" />
    <glyph glyph-name="angle-double-right"
      unicode="&#xF11B;"
      horiz-adv-x="1000" d="M284.1796875 850.5859375L240.234375 805.6640625L545.8984375 500L240.234375 194.3359375L284.1796875 149.4140625L612.3046875 477.5390625L634.765625 500L612.3046875 522.4609375L284.1796875 850.5859375zM502.9296875 850.5859375L458.984375 805.6640625L764.6484375 500L458.984375 194.3359375L502.9296875 149.4140625L831.0546875 477.5390625L853.515625 500L831.0546875 522.4609375L502.9296875 850.5859375z" />
    <glyph glyph-name="angle-double-right-1"
      unicode="&#x61;&#x6E;&#x67;&#x6C;&#x65;&#x2D;&#x64;&#x6F;&#x75;&#x62;&#x6C;&#x65;&#x2D;&#x72;&#x69;&#x67;&#x68;&#x74;"
      horiz-adv-x="1000" d="M284.1796875 850.5859375L240.234375 805.6640625L545.8984375 500L240.234375 194.3359375L284.1796875 149.4140625L612.3046875 477.5390625L634.765625 500L612.3046875 522.4609375L284.1796875 850.5859375zM502.9296875 850.5859375L458.984375 805.6640625L764.6484375 500L458.984375 194.3359375L502.9296875 149.4140625L831.0546875 477.5390625L853.515625 500L831.0546875 522.4609375L502.9296875 850.5859375z" />
    <glyph glyph-name="angle-double-up"
      unicode="&#xF11C;"
      horiz-adv-x="1000" d="M500 853.515625L477.5390625 831.0546875L118.1640625 471.6796875L163.0859375 427.734375L500 764.6484375L836.9140625 427.734375L881.8359375 471.6796875L522.4609375 831.0546875L500 853.515625zM500 634.765625L477.5390625 612.3046875L118.1640625 252.9296875L163.0859375 208.984375L500 545.8984375L836.9140625 208.984375L881.8359375 252.9296875L522.4609375 612.3046875L500 634.765625z" />
    <glyph glyph-name="angle-double-up-1"
      unicode="&#x61;&#x6E;&#x67;&#x6C;&#x65;&#x2D;&#x64;&#x6F;&#x75;&#x62;&#x6C;&#x65;&#x2D;&#x75;&#x70;"
      horiz-adv-x="1000" d="M500 853.515625L477.5390625 831.0546875L118.1640625 471.6796875L163.0859375 427.734375L500 764.6484375L836.9140625 427.734375L881.8359375 471.6796875L522.4609375 831.0546875L500 853.515625zM500 634.765625L477.5390625 612.3046875L118.1640625 252.9296875L163.0859375 208.984375L500 545.8984375L836.9140625 208.984375L881.8359375 252.9296875L522.4609375 612.3046875L500 634.765625z" />
    <glyph glyph-name="angle-down"
      unicode="&#xF11D;"
      horiz-adv-x="1000" d="M131.8359375 663.0859375L86.9140625 618.1640625L477.5390625 227.5390625L500 206.0546875L522.4609375 227.5390625L913.0859375 618.1640625L868.1640625 663.0859375L500 294.921875L131.8359375 663.0859375z" />
    <glyph glyph-name="angle-down-1"
      unicode="&#x61;&#x6E;&#x67;&#x6C;&#x65;&#x2D;&#x64;&#x6F;&#x77;&#x6E;"
      horiz-adv-x="1000" d="M131.8359375 663.0859375L86.9140625 618.1640625L477.5390625 227.5390625L500 206.0546875L522.4609375 227.5390625L913.0859375 618.1640625L868.1640625 663.0859375L500 294.921875L131.8359375 663.0859375z" />
    <glyph glyph-name="angle-left"
      unicode="&#xF11E;"
      horiz-adv-x="1000" d="M594.7265625 866.2109375L250.9765625 522.4609375L229.4921875 500L250.9765625 477.5390625L594.7265625 133.7890625L639.6484375 178.7109375L318.359375 500L639.6484375 821.2890625L594.7265625 866.2109375z" />
    <glyph glyph-name="angle-left-1"
      unicode="&#x61;&#x6E;&#x67;&#x6C;&#x65;&#x2D;&#x6C;&#x65;&#x66;&#x74;"
      horiz-adv-x="1000" d="M594.7265625 866.2109375L250.9765625 522.4609375L229.4921875 500L250.9765625 477.5390625L594.7265625 133.7890625L639.6484375 178.7109375L318.359375 500L639.6484375 821.2890625L594.7265625 866.2109375z" />
    <glyph glyph-name="angle-right"
      unicode="&#xF11F;"
      horiz-adv-x="1000" d="M405.2734375 866.2109375L360.3515625 821.2890625L681.640625 500L360.3515625 178.7109375L405.2734375 133.7890625L749.0234375 477.5390625L770.5078125 500L749.0234375 522.4609375L405.2734375 866.2109375z" />
    <glyph glyph-name="angle-right-1"
      unicode="&#x61;&#x6E;&#x67;&#x6C;&#x65;&#x2D;&#x72;&#x69;&#x67;&#x68;&#x74;"
      horiz-adv-x="1000" d="M405.2734375 866.2109375L360.3515625 821.2890625L681.640625 500L360.3515625 178.7109375L405.2734375 133.7890625L749.0234375 477.5390625L770.5078125 500L749.0234375 522.4609375L405.2734375 866.2109375z" />
    <glyph glyph-name="angle-up"
      unicode="&#xF120;"
      horiz-adv-x="1000" d="M500 793.9453125L477.5390625 772.4609375L86.9140625 381.8359375L131.8359375 336.9140625L500 705.078125L868.1640625 336.9140625L913.0859375 381.8359375L522.4609375 772.4609375L500 793.9453125z" />
    <glyph glyph-name="angle-up-1"
      unicode="&#x61;&#x6E;&#x67;&#x6C;&#x65;&#x2D;&#x75;&#x70;"
      horiz-adv-x="1000" d="M500 793.9453125L477.5390625 772.4609375L86.9140625 381.8359375L131.8359375 336.9140625L500 705.078125L868.1640625 336.9140625L913.0859375 381.8359375L522.4609375 772.4609375L500 793.9453125z" />
    <glyph glyph-name="apple"
      unicode="&#xF121;"
      horiz-adv-x="1000" d="M651.3671875 937.5C600.0616875 937.5 548.3705625 910.90138125 513.671875 870.1171875L513.671875 869.140625C489.052125 838.5545187499999 462.34125 790.13381875 470.703125 734.375C466.6485625 735.915475 466.40625 735.4851906250001 461.9140625 737.3046875C440.34734375 746.039953125 413.5416875 755.859375 381.8359375 755.859375C257.3930406250001 755.859375 163.0859375 643.2465625 163.0859375 495.1171875C163.0859375 399.2989375 195.3124375 309.48375 238.28125 242.1875C259.76565625 208.539375 284.1584 180.8148125 309.5703125 160.15625C334.98221875 139.4976875 361.5746875 125 391.6015625 125C421.62646875 125 444.0693125 135.19196875 460.9375 142.578125C477.8056875 149.96428125 490.78503125 156.25 515.625 156.25C537.993375 156.25 549.3149687499999 150.10715625 566.40625 142.578125C583.4975312500001 135.04909375 606.7773125 125 637.6953125 125C671.11453125 125 699.5405000000001 141.30759375 722.65625 162.109375C745.7719999999999 182.91115625 765.0923124999999 209.57909375 781.25 235.3515625C797.4076875000001 261.1240312500001 810.07178125 286.401625 819.3359375 306.640625C823.9680000000001 316.7601249999999 827.3709375 325.2120625 830.078125 332.03125C832.7853125 338.8504375 834.1155 340.8065000000001 835.9375 348.6328125L841.796875 374.0234375L818.359375 384.765625C812.83171875 387.244375 790.96421875 398.0540312500001 771.484375 417.96875C752.00453125 437.8834687499999 735.3515625 465.1128125 735.3515625 506.8359375C735.3515625 547.2424062499999 750.85896875 574.3741875000001 767.578125 593.75C775.9377187499999 603.43790625 784.5171875 611.3218750000001 791.015625 616.2109375C794.26484375 618.6553125 796.8909375 619.8513125 798.828125 621.09375C800.7653125 622.3362500000001 800.383125 621.92 803.7109375 624.0234375L830.078125 640.625L812.5 666.9921875C761.4799375 745.47608125 679.8479375000001 755.82068125 647.4609375 755.859375C632.3971875 755.859375 621.85109375 750.66111875 608.3984375 748.046875C615.9591250000001 755.090284375 625.6800000000001 759.528890625 631.8359375 767.578125C631.9640625000001 767.7453125 631.7078124999999 768.3871875 631.8359375 768.5546875C632.1421875 768.8894375 632.5096875 769.1944062499999 632.8125 769.53125L633.7890625 769.53125C667.09140625 806.799503125 685.55984375 856.78030625 682.6171875 908.203125L680.6640625 937.5L651.3671875 937.5zM614.2578125 865.234375C608.8839687499999 844.6444125 600.03925 824.900971875 585.9375 809.5703125L584.9609375 808.59375L583.984375 807.6171875C571.99778125 791.44505625 553.61071875 779.5133 535.15625 772.4609375C540.2509062500001 792.889196875 549.1378125 813.46883125 561.5234375 829.1015625C561.8109375 829.43775 562.20875 829.74440625 562.5 830.078125C576.1836875 845.749109375 595.0716874999999 857.40801875 614.2578125 865.234375zM381.8359375 693.359375C399.2551875 693.359375 418.45734375 686.8194062499999 438.4765625 678.7109375C458.49578125 670.6024687500001 477.212625 660.15625 503.90625 660.15625C530.48221875 660.15625 550.6043125 670.62571875 574.21875 678.7109375C597.8331875 686.79615625 622.8808437499999 693.359375 647.4609375 693.359375C663.83096875 693.339815625 704.17625 682.99359375 738.28125 651.3671875C732.34646875 646.0121875 727.0249062500001 642.09190625 720.703125 634.765625C696.8597812500001 607.1336249999999 672.8515625 564.1794687500001 672.8515625 506.8359375C672.8515625 447.2153125 698.80015625 402.40559375 726.5625 374.0234375C743.77771875 356.423875 754.4011875 352.3214375 767.578125 344.7265625C765.900625 340.794375 764.8665625 337.751125 762.6953125 333.0078125C754.316875 314.7038437500001 742.7251249999999 291.21971875 728.515625 268.5546875C714.3061250000001 245.8896562500001 697.097125 223.7724375 680.6640625 208.984375C664.231 194.1963125 649.46359375 187.5 637.6953125 187.5C619.9570625 187.5 609.64309375 192.33371875 591.796875 200.1953125C573.95065625 208.05690625 549.412875 218.75 515.625 218.75C480.15246875 218.75 453.827125 208.19978125 435.546875 200.1953125C417.266625 192.19084375 407.7329062500001 187.5 391.6015625 187.5C383.9096875 187.5 367.342 193.7747812500001 348.6328125 208.984375C329.923625 224.19396875 309.49996875 247.4176562500001 291.015625 276.3671875C254.0469375 334.26625 225.5859375 413.6541875000001 225.5859375 495.1171875C225.5859375 618.3003125 294.341334375 693.359375 381.8359375 693.359375z" />
    <glyph glyph-name="apple-1"
      unicode="&#x61;&#x70;&#x70;&#x6C;&#x65;"
      horiz-adv-x="1000" d="M651.3671875 937.5C600.0616875 937.5 548.3705625 910.90138125 513.671875 870.1171875L513.671875 869.140625C489.052125 838.5545187499999 462.34125 790.13381875 470.703125 734.375C466.6485625 735.915475 466.40625 735.4851906250001 461.9140625 737.3046875C440.34734375 746.039953125 413.5416875 755.859375 381.8359375 755.859375C257.3930406250001 755.859375 163.0859375 643.2465625 163.0859375 495.1171875C163.0859375 399.2989375 195.3124375 309.48375 238.28125 242.1875C259.76565625 208.539375 284.1584 180.8148125 309.5703125 160.15625C334.98221875 139.4976875 361.5746875 125 391.6015625 125C421.62646875 125 444.0693125 135.19196875 460.9375 142.578125C477.8056875 149.96428125 490.78503125 156.25 515.625 156.25C537.993375 156.25 549.3149687499999 150.10715625 566.40625 142.578125C583.4975312500001 135.04909375 606.7773125 125 637.6953125 125C671.11453125 125 699.5405000000001 141.30759375 722.65625 162.109375C745.7719999999999 182.91115625 765.0923124999999 209.57909375 781.25 235.3515625C797.4076875000001 261.1240312500001 810.07178125 286.401625 819.3359375 306.640625C823.9680000000001 316.7601249999999 827.3709375 325.2120625 830.078125 332.03125C832.7853125 338.8504375 834.1155 340.8065000000001 835.9375 348.6328125L841.796875 374.0234375L818.359375 384.765625C812.83171875 387.244375 790.96421875 398.0540312500001 771.484375 417.96875C752.00453125 437.8834687499999 735.3515625 465.1128125 735.3515625 506.8359375C735.3515625 547.2424062499999 750.85896875 574.3741875000001 767.578125 593.75C775.9377187499999 603.43790625 784.5171875 611.3218750000001 791.015625 616.2109375C794.26484375 618.6553125 796.8909375 619.8513125 798.828125 621.09375C800.7653125 622.3362500000001 800.383125 621.92 803.7109375 624.0234375L830.078125 640.625L812.5 666.9921875C761.4799375 745.47608125 679.8479375000001 755.82068125 647.4609375 755.859375C632.3971875 755.859375 621.85109375 750.66111875 608.3984375 748.046875C615.9591250000001 755.090284375 625.6800000000001 759.528890625 631.8359375 767.578125C631.9640625000001 767.7453125 631.7078124999999 768.3871875 631.8359375 768.5546875C632.1421875 768.8894375 632.5096875 769.1944062499999 632.8125 769.53125L633.7890625 769.53125C667.09140625 806.799503125 685.55984375 856.78030625 682.6171875 908.203125L680.6640625 937.5L651.3671875 937.5zM614.2578125 865.234375C608.8839687499999 844.6444125 600.03925 824.900971875 585.9375 809.5703125L584.9609375 808.59375L583.984375 807.6171875C571.99778125 791.44505625 553.61071875 779.5133 535.15625 772.4609375C540.2509062500001 792.889196875 549.1378125 813.46883125 561.5234375 829.1015625C561.8109375 829.43775 562.20875 829.74440625 562.5 830.078125C576.1836875 845.749109375 595.0716874999999 857.40801875 614.2578125 865.234375zM381.8359375 693.359375C399.2551875 693.359375 418.45734375 686.8194062499999 438.4765625 678.7109375C458.49578125 670.6024687500001 477.212625 660.15625 503.90625 660.15625C530.48221875 660.15625 550.6043125 670.62571875 574.21875 678.7109375C597.8331875 686.79615625 622.8808437499999 693.359375 647.4609375 693.359375C663.83096875 693.339815625 704.17625 682.99359375 738.28125 651.3671875C732.34646875 646.0121875 727.0249062500001 642.09190625 720.703125 634.765625C696.8597812500001 607.1336249999999 672.8515625 564.1794687500001 672.8515625 506.8359375C672.8515625 447.2153125 698.80015625 402.40559375 726.5625 374.0234375C743.77771875 356.423875 754.4011875 352.3214375 767.578125 344.7265625C765.900625 340.794375 764.8665625 337.751125 762.6953125 333.0078125C754.316875 314.7038437500001 742.7251249999999 291.2197187500001 728.515625 268.5546875C714.3061250000001 245.8896562500001 697.097125 223.7724375 680.6640625 208.984375C664.231 194.1963125 649.46359375 187.5 637.6953125 187.5C619.9570625 187.5 609.64309375 192.33371875 591.796875 200.1953125C573.95065625 208.05690625 549.412875 218.75 515.625 218.75C480.15246875 218.75 453.827125 208.19978125 435.546875 200.1953125C417.266625 192.19084375 407.7329062500001 187.5 391.6015625 187.5C383.9096875 187.5 367.342 193.7747812500001 348.6328125 208.984375C329.923625 224.19396875 309.49996875 247.4176562500001 291.015625 276.3671875C254.0469375 334.26625 225.5859375 413.6541875000001 225.5859375 495.1171875C225.5859375 618.3003125 294.341334375 693.359375 381.8359375 693.359375z" />
    <glyph glyph-name="archive"
      unicode="&#xF122;"
      horiz-adv-x="1000" d="M125 843.75L125 812.5L125 687.5L125 656.25L156.25 656.25L156.25 187.5L156.25 156.25L187.5 156.25L812.5 156.25L843.75 156.25L843.75 187.5L843.75 656.25L875 656.25L875 687.5L875 812.5L875 843.75L843.75 843.75L156.25 843.75L125 843.75zM187.5 781.25L812.5 781.25L812.5 718.75L187.5 718.75L187.5 781.25zM218.75 656.25L781.25 656.25L781.25 218.75L218.75 218.75L218.75 656.25zM400.390625 593.75A31.284312500000002 31.284312500000002 0 0 1 406.25 531.25L593.75 531.25A31.253124999999997 31.253124999999997 0 1 1 593.75 593.75L406.25 593.75A31.253124999999997 31.253124999999997 0 0 1 403.3203125 593.75A31.284312500000002 31.284312500000002 0 0 1 400.390625 593.75z" />
    <glyph glyph-name="archive-1"
      unicode="&#x61;&#x72;&#x63;&#x68;&#x69;&#x76;&#x65;"
      horiz-adv-x="1000" d="M125 843.75L125 812.5L125 687.5L125 656.25L156.25 656.25L156.25 187.5L156.25 156.25L187.5 156.25L812.5 156.25L843.75 156.25L843.75 187.5L843.75 656.25L875 656.25L875 687.5L875 812.5L875 843.75L843.75 843.75L156.25 843.75L125 843.75zM187.5 781.25L812.5 781.25L812.5 718.75L187.5 718.75L187.5 781.25zM218.75 656.25L781.25 656.25L781.25 218.75L218.75 218.75L218.75 656.25zM400.390625 593.75A31.284312500000002 31.284312500000002 0 0 1 406.25 531.25L593.75 531.25A31.253124999999997 31.253124999999997 0 1 1 593.75 593.75L406.25 593.75A31.253124999999997 31.253124999999997 0 0 1 403.3203125 593.75A31.284312500000002 31.284312500000002 0 0 1 400.390625 593.75z" />
    <glyph glyph-name="area-chart"
      unicode="&#xF123;"
      horiz-adv-x="1000" d="M875 873.046875L824.21875 833.984375L679.6875 720.703125L504.8828125 750L493.1640625 751.953125L482.421875 745.1171875L304.6875 626.953125L162.109375 655.2734375L125 663.0859375L125 625L125 483.3984375L125 437.5L125 375L125 156.25L125 125L156.25 125L843.75 125L875 125L875 156.25L875 500L875 562.5L875 627.9296875L875 809.5703125L875 873.046875zM812.5 745.1171875L812.5 577.1484375L680.6640625 472.65625L509.765625 529.296875L495.1171875 534.1796875L482.421875 526.3671875L308.59375 410.15625L187.5 458.984375L187.5 586.9140625L306.640625 563.4765625L319.3359375 560.546875L330.078125 567.3828125L506.8359375 685.546875L682.6171875 656.25L696.2890625 654.296875L707.03125 663.0859375L812.5 745.1171875zM812.5 497.0703125L812.5 187.5L187.5 187.5L187.5 375L187.5 390.625L300.78125 345.703125L316.40625 339.84375L330.078125 348.6328125L505.859375 465.8203125L677.734375 408.203125L693.359375 402.34375L707.03125 413.0859375L812.5 497.0703125z" />
    <glyph glyph-name="area-chart-1"
      unicode="&#x61;&#x72;&#x65;&#x61;&#x2D;&#x63;&#x68;&#x61;&#x72;&#x74;"
      horiz-adv-x="1000" d="M875 873.046875L824.21875 833.984375L679.6875 720.703125L504.8828125 750L493.1640625 751.953125L482.421875 745.1171875L304.6875 626.953125L162.109375 655.2734375L125 663.0859375L125 625L125 483.3984375L125 437.5L125 375L125 156.25L125 125L156.25 125L843.75 125L875 125L875 156.25L875 500L875 562.5L875 627.9296875L875 809.5703125L875 873.046875zM812.5 745.1171875L812.5 577.1484375L680.6640625 472.65625L509.765625 529.296875L495.1171875 534.1796875L482.421875 526.3671875L308.59375 410.15625L187.5 458.984375L187.5 586.9140625L306.640625 563.4765625L319.3359375 560.546875L330.078125 567.3828125L506.8359375 685.546875L682.6171875 656.25L696.2890625 654.296875L707.03125 663.0859375L812.5 745.1171875zM812.5 497.0703125L812.5 187.5L187.5 187.5L187.5 375L187.5 390.625L300.78125 345.703125L316.40625 339.84375L330.078125 348.6328125L505.859375 465.8203125L677.734375 408.203125L693.359375 402.34375L707.03125 413.0859375L812.5 497.0703125z" />
    <glyph glyph-name="arrow-circle-down"
      unicode="&#xF124;"
      horiz-adv-x="1000" d="M500 906.25C276.004465625 906.25 93.75 723.995534375 93.75 500C93.75 276.00446875 276.004465625 93.75 500 93.75C723.99553125 93.75 906.25 276.00446875 906.25 500C906.25 723.995534375 723.99553125 906.25 500 906.25zM500 843.75C690.2180312500001 843.75 843.75 690.218028125 843.75 500C843.75 309.7819687499999 690.2180312500001 156.25 500 156.25C309.781971875 156.25 156.25 309.7819687499999 156.25 500C156.25 690.218028125 309.781971875 843.75 500 843.75zM468.75 718.75L468.75 397.4609375L343.75 522.4609375L299.8046875 477.5390625L477.5390625 299.8046875L500 277.34375L522.4609375 299.8046875L700.1953125 477.5390625L656.25 522.4609375L531.25 397.4609375L531.25 718.75L468.75 718.75z" />
    <glyph glyph-name="arrow-circle-down-1"
      unicode="&#x61;&#x72;&#x72;&#x6F;&#x77;&#x2D;&#x63;&#x69;&#x72;&#x63;&#x6C;&#x65;&#x2D;&#x64;&#x6F;&#x77;&#x6E;"
      horiz-adv-x="1000" d="M500 906.25C276.004465625 906.25 93.75 723.995534375 93.75 500C93.75 276.00446875 276.004465625 93.75 500 93.75C723.99553125 93.75 906.25 276.00446875 906.25 500C906.25 723.995534375 723.99553125 906.25 500 906.25zM500 843.75C690.2180312500001 843.75 843.75 690.218028125 843.75 500C843.75 309.7819687499999 690.2180312500001 156.25 500 156.25C309.781971875 156.25 156.25 309.7819687499999 156.25 500C156.25 690.218028125 309.781971875 843.75 500 843.75zM468.75 718.75L468.75 397.4609375L343.75 522.4609375L299.8046875 477.5390625L477.5390625 299.8046875L500 277.34375L522.4609375 299.8046875L700.1953125 477.5390625L656.25 522.4609375L531.25 397.4609375L531.25 718.75L468.75 718.75z" />
    <glyph glyph-name="arrow-circle-left"
      unicode="&#xF125;"
      horiz-adv-x="1000" d="M500 906.25C276.004465625 906.25 93.75 723.995534375 93.75 500C93.75 276.00446875 276.004465625 93.75 500 93.75C723.99553125 93.75 906.25 276.00446875 906.25 500C906.25 723.995534375 723.99553125 906.25 500 906.25zM500 843.75C690.2180312500001 843.75 843.75 690.218028125 843.75 500C843.75 309.7819687499999 690.2180312500001 156.25 500 156.25C309.781971875 156.25 156.25 309.7819687499999 156.25 500C156.25 690.218028125 309.781971875 843.75 500 843.75zM477.5390625 700.1953125L299.8046875 522.4609375L277.34375 500L299.8046875 477.5390625L477.5390625 299.8046875L522.4609375 343.75L397.4609375 468.75L718.75 468.75L718.75 531.25L397.4609375 531.25L522.4609375 656.25L477.5390625 700.1953125z" />
    <glyph glyph-name="arrow-circle-left-1"
      unicode="&#x61;&#x72;&#x72;&#x6F;&#x77;&#x2D;&#x63;&#x69;&#x72;&#x63;&#x6C;&#x65;&#x2D;&#x6C;&#x65;&#x66;&#x74;"
      horiz-adv-x="1000" d="M500 906.25C276.004465625 906.25 93.75 723.995534375 93.75 500C93.75 276.00446875 276.004465625 93.75 500 93.75C723.99553125 93.75 906.25 276.00446875 906.25 500C906.25 723.995534375 723.99553125 906.25 500 906.25zM500 843.75C690.2180312500001 843.75 843.75 690.218028125 843.75 500C843.75 309.7819687499999 690.2180312500001 156.25 500 156.25C309.781971875 156.25 156.25 309.7819687499999 156.25 500C156.25 690.218028125 309.781971875 843.75 500 843.75zM477.5390625 700.1953125L299.8046875 522.4609375L277.34375 500L299.8046875 477.5390625L477.5390625 299.8046875L522.4609375 343.75L397.4609375 468.75L718.75 468.75L718.75 531.25L397.4609375 531.25L522.4609375 656.25L477.5390625 700.1953125z" />
    <glyph glyph-name="arrow-circle-o-down"
      unicode="&#xF126;"
      horiz-adv-x="1000" d="M500 906.25C276.004465625 906.25 93.75 723.995534375 93.75 500C93.75 276.00446875 276.004465625 93.75 500 93.75C723.99553125 93.75 906.25 276.00446875 906.25 500C906.25 723.995534375 723.99553125 906.25 500 906.25zM500 843.75C690.2180312500001 843.75 843.75 690.218028125 843.75 500C843.75 309.7819687499999 690.2180312500001 156.25 500 156.25C309.781971875 156.25 156.25 309.7819687499999 156.25 500C156.25 690.218028125 309.781971875 843.75 500 843.75zM468.75 718.75L468.75 397.4609375L343.75 522.4609375L299.8046875 477.5390625L477.5390625 299.8046875L500 277.34375L522.4609375 299.8046875L700.1953125 477.5390625L656.25 522.4609375L531.25 397.4609375L531.25 718.75L468.75 718.75z" />
    <glyph glyph-name="arrow-circle-o-down-1"
      unicode="&#x61;&#x72;&#x72;&#x6F;&#x77;&#x2D;&#x63;&#x69;&#x72;&#x63;&#x6C;&#x65;&#x2D;&#x6F;&#x2D;&#x64;&#x6F;&#x77;&#x6E;"
      horiz-adv-x="1000" d="M500 906.25C276.004465625 906.25 93.75 723.995534375 93.75 500C93.75 276.00446875 276.004465625 93.75 500 93.75C723.99553125 93.75 906.25 276.00446875 906.25 500C906.25 723.995534375 723.99553125 906.25 500 906.25zM500 843.75C690.2180312500001 843.75 843.75 690.218028125 843.75 500C843.75 309.7819687499999 690.2180312500001 156.25 500 156.25C309.781971875 156.25 156.25 309.7819687499999 156.25 500C156.25 690.218028125 309.781971875 843.75 500 843.75zM468.75 718.75L468.75 397.4609375L343.75 522.4609375L299.8046875 477.5390625L477.5390625 299.8046875L500 277.34375L522.4609375 299.8046875L700.1953125 477.5390625L656.25 522.4609375L531.25 397.4609375L531.25 718.75L468.75 718.75z" />
    <glyph glyph-name="arrow-circle-o-left"
      unicode="&#xF127;"
      horiz-adv-x="1000" d="M500 906.25C276.004465625 906.25 93.75 723.995534375 93.75 500C93.75 276.00446875 276.004465625 93.75 500 93.75C723.99553125 93.75 906.25 276.00446875 906.25 500C906.25 723.995534375 723.99553125 906.25 500 906.25zM500 843.75C690.2180312500001 843.75 843.75 690.218028125 843.75 500C843.75 309.7819687499999 690.2180312500001 156.25 500 156.25C309.781971875 156.25 156.25 309.7819687499999 156.25 500C156.25 690.218028125 309.781971875 843.75 500 843.75zM477.5390625 700.1953125L299.8046875 522.4609375L277.34375 500L299.8046875 477.5390625L477.5390625 299.8046875L522.4609375 343.75L397.4609375 468.75L718.75 468.75L718.75 531.25L397.4609375 531.25L522.4609375 656.25L477.5390625 700.1953125z" />
    <glyph glyph-name="arrow-circle-o-left-1"
      unicode="&#x61;&#x72;&#x72;&#x6F;&#x77;&#x2D;&#x63;&#x69;&#x72;&#x63;&#x6C;&#x65;&#x2D;&#x6F;&#x2D;&#x6C;&#x65;&#x66;&#x74;"
      horiz-adv-x="1000" d="M500 906.25C276.004465625 906.25 93.75 723.995534375 93.75 500C93.75 276.00446875 276.004465625 93.75 500 93.75C723.99553125 93.75 906.25 276.00446875 906.25 500C906.25 723.995534375 723.99553125 906.25 500 906.25zM500 843.75C690.2180312500001 843.75 843.75 690.218028125 843.75 500C843.75 309.7819687499999 690.2180312500001 156.25 500 156.25C309.781971875 156.25 156.25 309.7819687499999 156.25 500C156.25 690.218028125 309.781971875 843.75 500 843.75zM477.5390625 700.1953125L299.8046875 522.4609375L277.34375 500L299.8046875 477.5390625L477.5390625 299.8046875L522.4609375 343.75L397.4609375 468.75L718.75 468.75L718.75 531.25L397.4609375 531.25L522.4609375 656.25L477.5390625 700.1953125z" />
    <glyph glyph-name="arrow-circle-o-right"
      unicode="&#xF128;"
      horiz-adv-x="1000" d="M500 906.25C276.004465625 906.25 93.75 723.995534375 93.75 500C93.75 276.00446875 276.004465625 93.75 500 93.75C723.99553125 93.75 906.25 276.00446875 906.25 500C906.25 723.995534375 723.99553125 906.25 500 906.25zM500 843.75C690.2180312500001 843.75 843.75 690.218028125 843.75 500C843.75 309.7819687499999 690.2180312500001 156.25 500 156.25C309.781971875 156.25 156.25 309.7819687499999 156.25 500C156.25 690.218028125 309.781971875 843.75 500 843.75zM522.4609375 700.1953125L477.5390625 656.25L602.5390625 531.25L281.25 531.25L281.25 468.75L602.5390625 468.75L477.5390625 343.75L522.4609375 299.8046875L700.1953125 477.5390625L722.65625 500L700.1953125 522.4609375L522.4609375 700.1953125z" />
    <glyph glyph-name="arrow-circle-o-right-1"
      unicode="&#x61;&#x72;&#x72;&#x6F;&#x77;&#x2D;&#x63;&#x69;&#x72;&#x63;&#x6C;&#x65;&#x2D;&#x6F;&#x2D;&#x72;&#x69;&#x67;&#x68;&#x74;"
      horiz-adv-x="1000" d="M500 906.25C276.004465625 906.25 93.75 723.995534375 93.75 500C93.75 276.00446875 276.004465625 93.75 500 93.75C723.99553125 93.75 906.25 276.00446875 906.25 500C906.25 723.995534375 723.99553125 906.25 500 906.25zM500 843.75C690.2180312500001 843.75 843.75 690.218028125 843.75 500C843.75 309.7819687499999 690.2180312500001 156.25 500 156.25C309.781971875 156.25 156.25 309.7819687499999 156.25 500C156.25 690.218028125 309.781971875 843.75 500 843.75zM522.4609375 700.1953125L477.5390625 656.25L602.5390625 531.25L281.25 531.25L281.25 468.75L602.5390625 468.75L477.5390625 343.75L522.4609375 299.8046875L700.1953125 477.5390625L722.65625 500L700.1953125 522.4609375L522.4609375 700.1953125z" />
    <glyph glyph-name="arrow-circle-o-up"
      unicode="&#xF129;"
      horiz-adv-x="1000" d="M500 906.25C276.004465625 906.25 93.75 723.995534375 93.75 500C93.75 276.00446875 276.004465625 93.75 500 93.75C723.99553125 93.75 906.25 276.00446875 906.25 500C906.25 723.995534375 723.99553125 906.25 500 906.25zM500 843.75C690.2180312500001 843.75 843.75 690.218028125 843.75 500C843.75 309.7819687499999 690.2180312500001 156.25 500 156.25C309.781971875 156.25 156.25 309.7819687499999 156.25 500C156.25 690.218028125 309.781971875 843.75 500 843.75zM500 722.65625L477.5390625 700.1953125L299.8046875 522.4609375L343.75 477.5390625L468.75 602.5390625L468.75 281.25L531.25 281.25L531.25 602.5390625L656.25 477.5390625L700.1953125 522.4609375L522.4609375 700.1953125L500 722.65625z" />
    <glyph glyph-name="arrow-circle-o-up-1"
      unicode="&#x61;&#x72;&#x72;&#x6F;&#x77;&#x2D;&#x63;&#x69;&#x72;&#x63;&#x6C;&#x65;&#x2D;&#x6F;&#x2D;&#x75;&#x70;"
      horiz-adv-x="1000" d="M500 906.25C276.004465625 906.25 93.75 723.995534375 93.75 500C93.75 276.00446875 276.004465625 93.75 500 93.75C723.99553125 93.75 906.25 276.00446875 906.25 500C906.25 723.995534375 723.99553125 906.25 500 906.25zM500 843.75C690.2180312500001 843.75 843.75 690.218028125 843.75 500C843.75 309.7819687499999 690.2180312500001 156.25 500 156.25C309.781971875 156.25 156.25 309.7819687499999 156.25 500C156.25 690.218028125 309.781971875 843.75 500 843.75zM500 722.65625L477.5390625 700.1953125L299.8046875 522.4609375L343.75 477.5390625L468.75 602.5390625L468.75 281.25L531.25 281.25L531.25 602.5390625L656.25 477.5390625L700.1953125 522.4609375L522.4609375 700.1953125L500 722.65625z" />
    <glyph glyph-name="arrow-circle-right"
      unicode="&#xF12A;"
      horiz-adv-x="1000" d="M500 906.25C276.004465625 906.25 93.75 723.995534375 93.75 500C93.75 276.00446875 276.004465625 93.75 500 93.75C723.99553125 93.75 906.25 276.00446875 906.25 500C906.25 723.995534375 723.99553125 906.25 500 906.25zM500 843.75C690.2180312500001 843.75 843.75 690.218028125 843.75 500C843.75 309.7819687499999 690.2180312500001 156.25 500 156.25C309.781971875 156.25 156.25 309.7819687499999 156.25 500C156.25 690.218028125 309.781971875 843.75 500 843.75zM522.4609375 700.1953125L477.5390625 656.25L602.5390625 531.25L281.25 531.25L281.25 468.75L602.5390625 468.75L477.5390625 343.75L522.4609375 299.8046875L700.1953125 477.5390625L722.65625 500L700.1953125 522.4609375L522.4609375 700.1953125z" />
    <glyph glyph-name="arrow-circle-right-1"
      unicode="&#x61;&#x72;&#x72;&#x6F;&#x77;&#x2D;&#x63;&#x69;&#x72;&#x63;&#x6C;&#x65;&#x2D;&#x72;&#x69;&#x67;&#x68;&#x74;"
      horiz-adv-x="1000" d="M500 906.25C276.004465625 906.25 93.75 723.995534375 93.75 500C93.75 276.00446875 276.004465625 93.75 500 93.75C723.99553125 93.75 906.25 276.00446875 906.25 500C906.25 723.995534375 723.99553125 906.25 500 906.25zM500 843.75C690.2180312500001 843.75 843.75 690.218028125 843.75 500C843.75 309.7819687499999 690.2180312500001 156.25 500 156.25C309.781971875 156.25 156.25 309.7819687499999 156.25 500C156.25 690.218028125 309.781971875 843.75 500 843.75zM522.4609375 700.1953125L477.5390625 656.25L602.5390625 531.25L281.25 531.25L281.25 468.75L602.5390625 468.75L477.5390625 343.75L522.4609375 299.8046875L700.1953125 477.5390625L722.65625 500L700.1953125 522.4609375L522.4609375 700.1953125z" />
    <glyph glyph-name="arrow-circle-up"
      unicode="&#xF12B;"
      horiz-adv-x="1000" d="M500 906.25C276.004465625 906.25 93.75 723.995534375 93.75 500C93.75 276.00446875 276.004465625 93.75 500 93.75C723.99553125 93.75 906.25 276.00446875 906.25 500C906.25 723.995534375 723.99553125 906.25 500 906.25zM500 843.75C690.2180312500001 843.75 843.75 690.218028125 843.75 500C843.75 309.7819687499999 690.2180312500001 156.25 500 156.25C309.781971875 156.25 156.25 309.7819687499999 156.25 500C156.25 690.218028125 309.781971875 843.75 500 843.75zM500 722.65625L477.5390625 700.1953125L299.8046875 522.4609375L343.75 477.5390625L468.75 602.5390625L468.75 281.25L531.25 281.25L531.25 602.5390625L656.25 477.5390625L700.1953125 522.4609375L522.4609375 700.1953125L500 722.65625z" />
    <glyph glyph-name="arrow-circle-up-1"
      unicode="&#x61;&#x72;&#x72;&#x6F;&#x77;&#x2D;&#x63;&#x69;&#x72;&#x63;&#x6C;&#x65;&#x2D;&#x75;&#x70;"
      horiz-adv-x="1000" d="M500 906.25C276.004465625 906.25 93.75 723.995534375 93.75 500C93.75 276.00446875 276.004465625 93.75 500 93.75C723.99553125 93.75 906.25 276.00446875 906.25 500C906.25 723.995534375 723.99553125 906.25 500 906.25zM500 843.75C690.2180312500001 843.75 843.75 690.218028125 843.75 500C843.75 309.7819687499999 690.2180312500001 156.25 500 156.25C309.781971875 156.25 156.25 309.7819687499999 156.25 500C156.25 690.218028125 309.781971875 843.75 500 843.75zM500 722.65625L477.5390625 700.1953125L299.8046875 522.4609375L343.75 477.5390625L468.75 602.5390625L468.75 281.25L531.25 281.25L531.25 602.5390625L656.25 477.5390625L700.1953125 522.4609375L522.4609375 700.1953125L500 722.65625z" />
    <glyph glyph-name="arrow-down-1"
      unicode="&#xF12C;"
      horiz-adv-x="1000" d="M468.75 875L468.75 248.046875L256.8359375 459.9609375L211.9140625 415.0390625L477.5390625 149.4140625L500 127.9296875L522.4609375 149.4140625L788.0859375 415.0390625L743.1640625 459.9609375L531.25 248.046875L531.25 875L468.75 875z" />
    <glyph glyph-name="arrow-down-1-1"
      unicode="&#x61;&#x72;&#x72;&#x6F;&#x77;&#x2D;&#x64;&#x6F;&#x77;&#x6E;&#x2D;&#x31;"
      horiz-adv-x="1000" d="M468.75 875L468.75 248.046875L256.8359375 459.9609375L211.9140625 415.0390625L477.5390625 149.4140625L500 127.9296875L522.4609375 149.4140625L788.0859375 415.0390625L743.1640625 459.9609375L531.25 248.046875L531.25 875L468.75 875z" />
    <glyph glyph-name="arrow-left-1"
      unicode="&#xF12D;"
      horiz-adv-x="1000" d="M415.0390625 788.0859375L149.4140625 522.4609375L127.9296875 500L149.4140625 477.5390625L415.0390625 211.9140625L459.9609375 256.8359375L248.046875 468.75L875 468.75L875 531.25L248.046875 531.25L459.9609375 743.1640625L415.0390625 788.0859375z" />
    <glyph glyph-name="arrow-left-1-1"
      unicode="&#x61;&#x72;&#x72;&#x6F;&#x77;&#x2D;&#x6C;&#x65;&#x66;&#x74;&#x2D;&#x31;"
      horiz-adv-x="1000" d="M415.0390625 788.0859375L149.4140625 522.4609375L127.9296875 500L149.4140625 477.5390625L415.0390625 211.9140625L459.9609375 256.8359375L248.046875 468.75L875 468.75L875 531.25L248.046875 531.25L459.9609375 743.1640625L415.0390625 788.0859375z" />
    <glyph glyph-name="arrow-right-1"
      unicode="&#xF12E;"
      horiz-adv-x="1000" d="M584.9609375 788.0859375L540.0390625 743.1640625L751.953125 531.25L125 531.25L125 468.75L751.953125 468.75L540.0390625 256.8359375L584.9609375 211.9140625L850.5859375 477.5390625L872.0703125 500L850.5859375 522.4609375L584.9609375 788.0859375z" />
    <glyph glyph-name="arrow-right-1-1"
      unicode="&#x61;&#x72;&#x72;&#x6F;&#x77;&#x2D;&#x72;&#x69;&#x67;&#x68;&#x74;&#x2D;&#x31;"
      horiz-adv-x="1000" d="M584.9609375 788.0859375L540.0390625 743.1640625L751.953125 531.25L125 531.25L125 468.75L751.953125 468.75L540.0390625 256.8359375L584.9609375 211.9140625L850.5859375 477.5390625L872.0703125 500L850.5859375 522.4609375L584.9609375 788.0859375z" />
    <glyph glyph-name="arrow-up-1"
      unicode="&#xF12F;"
      horiz-adv-x="1000" d="M500 872.0703125L477.5390625 850.5859375L211.9140625 584.9609375L256.8359375 540.0390625L468.75 751.953125L468.75 125L531.25 125L531.25 751.953125L743.1640625 540.0390625L788.0859375 584.9609375L522.4609375 850.5859375L500 872.0703125z" />
    <glyph glyph-name="arrow-up-1-1"
      unicode="&#x61;&#x72;&#x72;&#x6F;&#x77;&#x2D;&#x75;&#x70;&#x2D;&#x31;"
      horiz-adv-x="1000" d="M500 872.0703125L477.5390625 850.5859375L211.9140625 584.9609375L256.8359375 540.0390625L468.75 751.953125L468.75 125L531.25 125L531.25 751.953125L743.1640625 540.0390625L788.0859375 584.9609375L522.4609375 850.5859375L500 872.0703125z" />
    <glyph glyph-name="arrows-alt"
      unicode="&#xF130;"
      horiz-adv-x="1000" d="M125 875L125 843.75L125 593.75L187.5 593.75L187.5 767.578125L455.078125 500L187.5 232.421875L187.5 406.25L125 406.25L125 156.25L125 125L156.25 125L406.25 125L406.25 187.5L232.421875 187.5L500 455.078125L767.578125 187.5L593.75 187.5L593.75 125L843.75 125L875 125L875 156.25L875 406.25L812.5 406.25L812.5 232.421875L544.921875 500L812.5 767.578125L812.5 593.75L875 593.75L875 843.75L875 875L843.75 875L593.75 875L593.75 812.5L767.578125 812.5L500 544.921875L232.421875 812.5L406.25 812.5L406.25 875L156.25 875L125 875z" />
    <glyph glyph-name="arrows-alt-1"
      unicode="&#x61;&#x72;&#x72;&#x6F;&#x77;&#x73;&#x2D;&#x61;&#x6C;&#x74;"
      horiz-adv-x="1000" d="M125 875L125 843.75L125 593.75L187.5 593.75L187.5 767.578125L455.078125 500L187.5 232.421875L187.5 406.25L125 406.25L125 156.25L125 125L156.25 125L406.25 125L406.25 187.5L232.421875 187.5L500 455.078125L767.578125 187.5L593.75 187.5L593.75 125L843.75 125L875 125L875 156.25L875 406.25L812.5 406.25L812.5 232.421875L544.921875 500L812.5 767.578125L812.5 593.75L875 593.75L875 843.75L875 875L843.75 875L593.75 875L593.75 812.5L767.578125 812.5L500 544.921875L232.421875 812.5L406.25 812.5L406.25 875L156.25 875L125 875z" />
    <glyph glyph-name="arrows-h"
      unicode="&#xF131;"
      horiz-adv-x="1000" d="M290.0390625 788.0859375L24.4140625 522.4609375L2.9296875 500L24.4140625 477.5390625L290.0390625 211.9140625L334.9609375 256.8359375L123.046875 468.75L876.953125 468.75L665.0390625 256.8359375L709.9609375 211.9140625L975.5859375 477.5390625L997.0703125 500L975.5859375 522.4609375L709.9609375 788.0859375L665.0390625 743.1640625L876.953125 531.25L123.046875 531.25L334.9609375 743.1640625L290.0390625 788.0859375z" />
    <glyph glyph-name="arrows-h-1"
      unicode="&#x61;&#x72;&#x72;&#x6F;&#x77;&#x73;&#x2D;&#x68;"
      horiz-adv-x="1000" d="M290.0390625 788.0859375L24.4140625 522.4609375L2.9296875 500L24.4140625 477.5390625L290.0390625 211.9140625L334.9609375 256.8359375L123.046875 468.75L876.953125 468.75L665.0390625 256.8359375L709.9609375 211.9140625L975.5859375 477.5390625L997.0703125 500L975.5859375 522.4609375L709.9609375 788.0859375L665.0390625 743.1640625L876.953125 531.25L123.046875 531.25L334.9609375 743.1640625L290.0390625 788.0859375z" />
    <glyph glyph-name="arrows-v"
      unicode="&#xF132;"
      horiz-adv-x="1000" d="M500 934.5703125L477.5390625 913.0859375L227.5390625 663.0859375L272.4609375 618.1640625L468.75 814.453125L468.75 185.546875L272.4609375 381.8359375L227.5390625 336.9140625L477.5390625 86.9140625L500 65.4296875L522.4609375 86.9140625L772.4609375 336.9140625L727.5390625 381.8359375L531.25 185.546875L531.25 814.453125L727.5390625 618.1640625L772.4609375 663.0859375L522.4609375 913.0859375L500 934.5703125z" />
    <glyph glyph-name="arrows-v-1"
      unicode="&#x61;&#x72;&#x72;&#x6F;&#x77;&#x73;&#x2D;&#x76;"
      horiz-adv-x="1000" d="M500 934.5703125L477.5390625 913.0859375L227.5390625 663.0859375L272.4609375 618.1640625L468.75 814.453125L468.75 185.546875L272.4609375 381.8359375L227.5390625 336.9140625L477.5390625 86.9140625L500 65.4296875L522.4609375 86.9140625L772.4609375 336.9140625L727.5390625 381.8359375L531.25 185.546875L531.25 814.453125L727.5390625 618.1640625L772.4609375 663.0859375L522.4609375 913.0859375L500 934.5703125z" />
    <glyph glyph-name="arrows"
      unicode="&#xF133;"
      horiz-adv-x="1000" d="M125 875L125 843.75L125 593.75L187.5 593.75L187.5 767.578125L455.078125 500L187.5 232.421875L187.5 406.25L125 406.25L125 156.25L125 125L156.25 125L406.25 125L406.25 187.5L232.421875 187.5L500 455.078125L767.578125 187.5L593.75 187.5L593.75 125L843.75 125L875 125L875 156.25L875 406.25L812.5 406.25L812.5 232.421875L544.921875 500L812.5 767.578125L812.5 593.75L875 593.75L875 843.75L875 875L843.75 875L593.75 875L593.75 812.5L767.578125 812.5L500 544.921875L232.421875 812.5L406.25 812.5L406.25 875L156.25 875L125 875z" />
    <glyph glyph-name="arrows-1"
      unicode="&#x61;&#x72;&#x72;&#x6F;&#x77;&#x73;"
      horiz-adv-x="1000" d="M125 875L125 843.75L125 593.75L187.5 593.75L187.5 767.578125L455.078125 500L187.5 232.421875L187.5 406.25L125 406.25L125 156.25L125 125L156.25 125L406.25 125L406.25 187.5L232.421875 187.5L500 455.078125L767.578125 187.5L593.75 187.5L593.75 125L843.75 125L875 125L875 156.25L875 406.25L812.5 406.25L812.5 232.421875L544.921875 500L812.5 767.578125L812.5 593.75L875 593.75L875 843.75L875 875L843.75 875L593.75 875L593.75 812.5L767.578125 812.5L500 544.921875L232.421875 812.5L406.25 812.5L406.25 875L156.25 875L125 875z" />
    <glyph glyph-name="asterisk"
      unicode="&#xF134;"
      horiz-adv-x="1000" d="M553.125 468.75L746.875 206.25L671.875 156.25L500 428.125L328.125 156.25L256.25 206.25L450 468.75L159.375 543.75L187.5 625L471.875 525L453.125 843.75H546.875L531.25 525L812.5 625L837.5 540.625L553.125 468.75z" />
    <glyph glyph-name="asterisk-1"
      unicode="&#x61;&#x73;&#x74;&#x65;&#x72;&#x69;&#x73;&#x6B;"
      horiz-adv-x="1000" d="M553.125 468.75L746.875 206.25L671.875 156.25L500 428.125L328.125 156.25L256.25 206.25L450 468.75L159.375 543.75L187.5 625L471.875 525L453.125 843.75H546.875L531.25 525L812.5 625L837.5 540.625L553.125 468.75z" />
    </font>
</defs>
</svg>
